<svg height="512pt" viewBox="0 -45 512 512" width="512pt" xmlns="http://www.w3.org/2000/svg"><path d="m460.964844 77.035156h-111.617188v-37.90625c0-21.578125-17.550781-39.128906-39.128906-39.128906h-108.4375c-21.578125 0-39.128906 17.550781-39.128906 39.128906v37.90625h-111.617188c-28.140625 0-51.035156 22.894532-51.035156 51.035156v243.273438c0 28.140625 22.894531 51.035156 51.035156 51.035156h409.929688c28.140625 0 51.035156-22.894531 51.035156-51.035156v-243.273438c0-28.140624-22.894531-51.035156-51.035156-51.035156zm-267.917969-37.90625c0-4.816406 3.917969-8.734375 8.734375-8.734375h108.4375c4.816406 0 8.734375 3.917969 8.734375 8.734375v37.90625h-125.90625zm-162.652344 88.941406c0-11.378906 9.261719-20.640624 20.640625-20.640624h409.929688c11.378906 0 20.640625 9.261718 20.640625 20.640624v45.136719h-451.210938zm171.382813 75.53125h108.445312v12.941407c0 13.835937-11.253906 25.089843-25.09375 25.089843h-58.261718c-13.835938 0-25.089844-11.253906-25.089844-25.089843zm279.828125 167.742188c0 11.382812-9.261719 20.640625-20.640625 20.640625h-409.929688c-11.378906 0-20.640625-9.257813-20.640625-20.640625v-167.742188h140.984375v12.941407c0 30.59375 24.894532 55.484375 55.488282 55.484375h58.261718c30.597656 0 55.488282-24.890625 55.488282-55.484375v-12.941407h140.988281zm0 0"/></svg>