<?xml version="1.0" encoding="utf-8"?>
<!-- Generator: Adobe Illustrator 16.0.0, SVG Export Plug-In . SVG Version: 6.00 Build 0)  -->
<!DOCTYPE svg PUBLIC "-//W3C//DTD SVG 1.1//EN" "http://www.w3.org/Graphics/SVG/1.1/DTD/svg11.dtd">
<svg version="1.1" id="Layer_1" xmlns="http://www.w3.org/2000/svg" xmlns:xlink="http://www.w3.org/1999/xlink" x="0px" y="0px"
	 width="424.031px" height="153.907px" viewBox="0 0 424.031 153.907" enable-background="new 0 0 424.031 153.907"
	 xml:space="preserve">
<g>
	<g>
		<g>
			<path fill-rule="evenodd" clip-rule="evenodd" fill="#009969" d="M147.242,0.838c-13.159,2.674-25.657,11.214-34.298,23.444
				c-5.229,7.404-11.768,20.168-13.193,38.965c-1.034,13.72,2.79,27.547,9.991,36.091c8.575,10.197,18.321,14.521,32.588,14.453
				c13.594-0.055,21.709-4.398,26.637-7.655c18.479-12.269,24.373-31.947,24.609-32.777l0.572-1.955h-25.873l-0.426,0.776
				c-0.056,0.091-5.31,9.449-12.012,12.487c-7.293,3.316-9.239,3.268-13.491,3.173l-0.696-0.015
				c-9.425-0.205-18.705-9.212-17.923-23.932c0.771-14.449,4.664-20.677,8.579-25.81c5.115-6.68,9.831-10.493,20.077-11.522
				c8.356-0.835,13.353,3.123,15.59,5.564c5.629,6.114,6.455,13.364,6.459,13.434l0.131,1.256h1.079h23.245l-0.082-1.755
				c-0.03-0.865-1.109-21.27-15.003-34.459C174.734,2,160.387-1.832,147.242,0.838z M111.679,97.057
				c-6.708-7.962-10.271-20.902-9.299-33.769c1.367-17.945,7.574-30.093,12.541-37.122c8.201-11.606,20.076-19.72,32.572-22.261
				c12.451-2.532,26.011,1.074,34.556,9.184C192.919,23.407,195.439,38.718,196,43.701c-2.6,0-17.458,0-19.149,0
				c-0.479-2.539-2.067-8.571-7.008-13.94c-2.523-2.755-8.161-7.234-17.487-6.302c-11.118,1.113-16.463,5.478-21.943,12.635
				c-4.076,5.339-8.501,12.336-9.322,27.843c-0.882,16.6,9.634,26.771,20.307,27.008c0.008,0,0.691,0.017,0.691,0.017
				c4.339,0.087,6.725,0.146,14.522-3.393c6.495-2.944,11.488-10.615,12.948-13.05c1.267,0,17.806,0,20.822,0
				c-1.89,5.044-8.258,19.429-22.568,28.925c-4.652,3.079-12.333,7.176-25.291,7.228
				C128.987,110.741,119.762,106.668,111.679,97.057z"/>
			<path fill-rule="evenodd" clip-rule="evenodd" fill="#009969" d="M179.11,40.28h13.276c0,0-2.256-16.443-12.837-25.132
				C172.209,9.12,159.727,4.551,147,7.136c-12.729,2.585-22.125,10.455-29.875,21.437c-5.844,8.268-10.75,20.572-11.859,33.987
				c-1.113,13.425,2.934,25.425,9.193,32.865c7.669,9.111,16.086,12.277,28.168,12.277c12.076,0,18.568-3.805,23.879-7.155
				c13.088-8.275,18.85-22.55,18.85-22.55h-14.246c0,0-7.41,9.987-14.366,13.14c-7.617,3.457-12.042,3.405-16.611,3.126
				c-3.617-0.22-21.658-4.837-22.077-27.996c-0.26-14.558,5.31-26.555,10.571-32.842c5.26-6.274,12.253-13.725,25.527-13.725
				c11.34,0,15.593,5.142,18.988,8.587C177.017,32.19,179.11,40.28,179.11,40.28z"/>
		</g>
		<g>
			<path fill-rule="evenodd" clip-rule="evenodd" fill="#009969" d="M327.991,2.183h-62.407l-20.539,110.525h63.164l5.482-26.836
				c0,0-32.792,0.016-36.214,0.021c0.565-2.817,2.796-13.829,3.185-15.782c2.378,0.002,36.691,0.034,36.691,0.034l4.059-26.884
				c0,0-32.378,0-35.741,0c0.509-2.736,2.389-12.932,2.746-14.887c2.42,0,36.219,0,36.219,0l5.259-26.19H327.991z M326.088,5.302
				c-0.59,2.961-3.593,17.909-4.002,19.954c-2.375,0-36.261,0-36.261,0l-3.9,21.119c0,0,32.605,0,35.865,0
				c-0.433,2.877-2.787,18.475-3.121,20.656c-2.484-0.006-36.555-0.036-36.555-0.036l-4.442,22.011c0,0,32.777-0.021,36.206-0.021
				c-0.617,2.995-3.791,18.558-4.21,20.608c-2.362,0-53.447,0-56.881,0c0.652-3.52,18.934-101.847,19.389-104.291
				C270.575,5.302,322.606,5.302,326.088,5.302z"/>
			<polygon fill-rule="evenodd" clip-rule="evenodd" fill="#009969" points="252.04,106.088 302.966,106.088 305.854,92.484 
				268.83,92.476 274.679,63.491 311.347,63.491 313.518,50.101 277.287,50.101 282.999,21.966 319.236,21.966 322.057,8.734 
				270.485,8.734 			"/>
		</g>
		<g>
			<polygon fill-rule="evenodd" clip-rule="evenodd" fill="#009969" points="191.238,106.088 205.269,106.088 213.875,63.491 
				250.548,63.491 252.72,50.101 216.473,50.101 221.326,21.966 257.991,21.966 260.659,8.734 209.678,8.734 			"/>
			<path fill-rule="evenodd" clip-rule="evenodd" fill="#009969" d="M266.901,2.183h-62.397L183.963,112.69l26.884,0.246
				c0,0,8.25-40.471,8.729-42.826c2.375,0.002,36.693,0.034,36.693,0.034l4.057-26.884c0,0-32.37,0-35.739,0
				c0.503-2.736,2.39-12.929,2.752-14.887c2.41,0,36.214,0,36.214,0l5.258-26.19H266.901z M265.009,5.302
				c-0.6,2.961-3.598,17.909-4.013,19.954c-2.373,0-36.251,0-36.251,0l-3.9,21.119c0,0,32.602,0,35.86,0
				c-0.431,2.877-2.786,18.475-3.118,20.656c-2.485-0.006-36.554-0.036-36.554-0.036s-8.249,40.437-8.727,42.8
				c-2.112-0.017-17.634-0.16-20.6-0.188c0.645-3.483,18.926-101.86,19.384-104.304C209.495,5.302,261.515,5.302,265.009,5.302z"/>
		</g>
	</g>
	<path fill="#009969" d="M15.813,144.308c-0.135,0.473-0.276,0.975-0.407,1.449c-1.219,4.613-3.522,8.149-8.77,8.149
		c-7.743,0-7.209-4.918-5.776-11.654l0.767-3.604c1.567-6.433,3.09-11.213,10.636-11.213c4.192,0.063,6.09,2.221,5.51,6.533
		c-0.064,0.64-0.135,1.278-0.301,1.92H12.82c0.139-1.617,0.954-4.65-1.37-4.65c-3.7,0-4.335,4.415-4.75,6.365l-1.491,7.004
		c-0.445,2.09-0.999,5.493,2.237,5.493c2.584,0,3.173-4.18,3.62-5.793H15.813z"/>
	<path fill="#009969" d="M23.203,140.769c0.374-1.78,0.763-3.602,3.085-3.602c2.191,0,1.803,1.821,1.426,3.602l-1.346,6.334
		c-0.494,2.325-0.882,3.33-2.898,3.33c-2.122,0-2.109-1.005-1.616-3.33L23.203,140.769z M22.751,153.803
		c5.639,0.104,7.183-2.726,8.549-9.326c1.351-6.504,2.207-10.679-4.295-10.679c-6.607,0-7.554,4.175-8.964,10.679
		C16.595,151.078,16.974,153.907,22.751,153.803z"/>
	<path fill="#009969" d="M40.425,136.258h0.071c1.414-2.088,3.263-2.394,4.695-2.46c1.625-0.032,3.625,0.676,3.555,2.46
		c1.224-1.649,2.775-2.46,4.931-2.46c3.23,0,4.218,2.021,3.791,4.041l-3.285,15.457H49.8l2.726-12.832
		c0.373-1.714,0.56-3.397-1.386-3.297c-1.904,0.099-2.52,1.408-2.991,3.637l-2.657,12.492h-4.383l2.779-13.067
		c0.36-1.68,0.525-3.098-1.504-3.062c-2.061,0.034-2.479,1.547-2.927,3.637l-2.656,12.492h-4.377l4.041-18.99h4.371L40.425,136.258z
		"/>
	<path fill="#009969" d="M57.887,153.296l4.035-18.99h4.376l-4.04,18.99H57.887z M62.405,132.015l0.852-3.977h4.372l-0.84,3.977
		H62.405z"/>
	<path fill="#009969" d="M70.399,147.033c-1.082,3.5,0.282,3.4,1.295,3.4c1.246,0,2.313-0.906,2.268-2.117
		c0.166-1.079-0.957-1.683-1.675-2.256l-2.038-1.653c-1.87-1.515-2.914-3.262-2.329-5.991c0.62-2.931,3.301-4.617,7.507-4.617
		c4.248,0,5.733,2.226,4.761,6.297h-4.374c0.544-2.122,0.118-2.928-1.398-2.928c-1.05,0-1.95,0.47-2.184,1.547
		c-0.235,1.121,0.466,1.616,1.186,2.193l3.053,2.423c0.979,0.634,2.343,2.462,2.203,3.737c-0.328,3.303-1.869,6.735-7.929,6.735
		c-2.324,0-6.464-0.976-4.727-6.771H70.399z"/>
	<path fill="#009969" d="M80.178,153.296l4.031-18.99h4.388l-4.042,18.99H80.178z M84.702,132.015l0.846-3.977h4.375l-0.841,3.977
		H84.702z"/>
	<path fill="#009969" d="M94.861,140.769c0.379-1.78,0.762-3.602,3.091-3.602c2.192,0,1.803,1.821,1.426,3.602l-1.351,6.334
		c-0.493,2.325-0.876,3.33-2.898,3.33c-2.116,0-2.11-1.005-1.611-3.33L94.861,140.769z M96.164,132.116h3.401l6.034-4.919h-5.225
		L96.164,132.116z M94.419,153.803c5.635,0.104,7.174-2.726,8.55-9.326c1.346-6.504,2.2-10.679-4.301-10.679
		c-6.602,0-7.557,4.175-8.967,10.679C88.264,151.078,88.638,153.907,94.419,153.803z"/>
	<path fill="#009969" d="M111.916,136.258h0.071c1.441-2.188,3.451-2.46,4.458-2.46c2.499,0,4.212,1.449,3.355,4.851l-3.119,14.647
		h-4.379l2.693-12.661c0.397-1.851,0.448-3.064-1.189-3.132c-1.638-0.065-2.534,1.485-2.897,3.505l-2.615,12.288h-4.374l4.035-18.99
		h4.379L111.916,136.258z"/>
	<path fill="#009969" d="M127.561,153.296l5.371-25.258h13.37l-0.791,3.706h-8.656l-1.356,6.399h8.117l-0.792,3.701h-8.116
		l-2.434,11.451H127.561z"/>
	<path fill="#009969" d="M149.599,141.346l0.168-0.776c0.361-1.718,0.62-3.402,2.812-3.402c1.746,0,2.12,0.608,1.746,2.529
		l-0.348,1.649H149.599z M144.27,145.824c-1.29,5.592,0.258,7.979,5.308,7.979c4.474,0,6.808-2.693,7.538-6.938h-4.377
		c-0.444,2.394-1.163,3.567-2.781,3.567c-1.312,0-2.156-0.47-1.663-2.964l0.589-2.76h8.756l0.538-2.556
		c1.104-5.191,1.14-8.355-4.957-8.355c-4.308,0-7.143,2.563-7.89,7.039L144.27,145.824z"/>
	<path fill="#009969" d="M168.287,147.068c-0.465,2.191-1.422,3.365-2.838,3.365c-1.35,0-1.51-1.444-1.224-3.265l1.345-6.331
		c0.535-1.886,0.71-3.67,2.766-3.67c2.062,0,1.551,2.697,1.16,4.207L168.287,147.068z M166.959,153.296h4.38l5.37-25.258h-4.384
		l-1.374,6.5c-0.121,0.573-0.208,1.115-0.228,1.688h-0.065c-0.489-1.82-1.527-2.46-3.395-2.428c-2.842,0.066-4.797,1.514-6.01,6.736
		l-1.461,6.867c-0.541,3.031-0.48,6.401,3.224,6.401c1.738-0.102,3.058-0.604,4.308-2.524h0.07L166.959,153.296z"/>
	<path fill="#009969" d="M181.259,141.346l0.161-0.776c0.367-1.718,0.624-3.402,2.811-3.402c1.753,0,2.129,0.608,1.757,2.529
		l-0.358,1.649H181.259z M175.923,145.824c-1.287,5.592,0.261,7.979,5.316,7.979c4.473,0,6.8-2.693,7.53-6.938h-4.38
		c-0.437,2.394-1.157,3.567-2.775,3.567c-1.318,0-2.16-0.47-1.661-2.964l0.583-2.76h8.762l0.546-2.556
		c1.102-5.191,1.133-8.355-4.965-8.355c-4.311,0-7.143,2.563-7.893,7.039L175.923,145.824z"/>
	<path fill="#009969" d="M197.97,137.672h0.059c0.837-1.381,1.544-2.156,2.297-2.692c1.466-1.046,2.292-0.975,2.938-1.011
		l-1.099,5.186c-2.372-0.233-4.359,0.372-5.022,3.167l-2.333,10.975h-4.375l4.036-18.99h4.211L197.97,137.672z"/>
	<path fill="#009969" d="M210.373,145.349c-0.484,1.819-0.707,5.084-3.302,5.084c-1.615,0-1.843-0.978-1.54-2.427
		c0.177-0.803,0.473-1.746,1.229-2.288c1.345-0.938,2.821-1.679,4.055-2.419L210.373,145.349z M213.437,153.296
		c-0.053-0.873,0-1.747,0.188-2.661l2.39-11.207c0.592-2.498,0.892-5.63-5.074-5.63c-5.485,0-7.204,2.529-7.928,6.13h4.177
		c0.327-1.717,0.885-2.761,2.875-2.761c1.171,0,1.819,0.133,1.843,0.977c0.04,1.553-0.809,2.391-2.831,3.168
		c-3.732,1.413-7.017,2.454-7.943,6.801c-0.827,3.906,0.336,5.69,3.874,5.69c1.481,0,3.015-0.88,4.366-2.461h0.066
		c-0.212,0.677-0.324,1.35-0.146,1.954H213.437z"/>
	<path fill="#009969" d="M216.937,153.296l5.368-25.258h4.38l-5.37,25.258H216.937z"/>
	<path fill="#009969" d="M241.738,147.068c-0.466,2.191-1.432,3.365-2.841,3.365c-1.346,0-1.506-1.444-1.225-3.265l1.343-6.331
		c0.542-1.886,0.721-3.67,2.771-3.67c2.053,0,1.545,2.697,1.153,4.207L241.738,147.068z M240.412,153.296h4.374l5.378-25.258h-4.384
		l-1.38,6.5c-0.124,0.573-0.206,1.115-0.223,1.688h-0.071c-0.488-1.82-1.533-2.46-3.392-2.428c-2.841,0.066-4.8,1.514-6.01,6.736
		l-1.461,6.867c-0.541,3.031-0.487,6.401,3.226,6.401c1.736-0.102,3.056-0.604,4.302-2.524h0.071L240.412,153.296z"/>
	<path fill="#009969" d="M254.7,141.346l0.172-0.776c0.361-1.718,0.618-3.402,2.807-3.402c1.752,0,2.131,0.608,1.755,2.529
		l-0.351,1.649H254.7z M249.376,145.824c-1.29,5.592,0.249,7.979,5.309,7.979c4.473,0,6.797-2.693,7.536-6.938h-4.383
		c-0.436,2.394-1.163,3.567-2.775,3.567c-1.314,0-2.156-0.47-1.662-2.964l0.585-2.76h8.76l0.541-2.556
		c1.104-5.191,1.139-8.355-4.957-8.355c-4.313,0-7.144,2.563-7.894,7.039L249.376,145.824z"/>
	<path fill="#009969" d="M271.432,153.296l5.365-25.258h13.272l-0.794,3.706h-8.554l-1.353,6.371h7.881l-0.79,3.696h-7.875
		l-1.658,7.782h8.554l-0.783,3.702H271.432z"/>
	<path fill="#009969" d="M287.591,153.296l5.368-25.258h4.377l-5.372,25.258H287.591z"/>
	<path fill="#009969" d="M302.122,141.346l0.167-0.776c0.363-1.718,0.622-3.402,2.811-3.402c1.746,0,2.123,0.608,1.746,2.529
		l-0.34,1.649H302.122z M296.792,145.824c-1.283,5.592,0.256,7.979,5.31,7.979c4.48,0,6.803-2.693,7.533-6.938h-4.38
		c-0.439,2.394-1.163,3.567-2.777,3.567c-1.318,0-2.159-0.47-1.663-2.964l0.588-2.76h8.761l0.544-2.556
		c1.099-5.191,1.134-8.355-4.956-8.355c-4.318,0-7.149,2.563-7.898,7.039L296.792,145.824z"/>
	<path fill="#009969" d="M321.074,140.908l0.45-2.123c0.153-1.044-0.23-1.617-1.168-1.617c-1.688,0-2.096,1.918-2.561,4.247
		l-0.948,4.473c-0.885,3.707-0.595,4.378,0.686,4.546c1.354-0.029,1.653-1.276,2.109-2.792l0.37-1.754h4.382l-0.373,1.754
		c-0.85,3.969-2.961,6.162-7.303,6.162c-3.883,0-5.663-2.048-4.422-7.105l1.321-6.163c1.081-5.324,4.017-6.736,7.347-6.736
		c4.412,0,5.44,2.762,4.806,5.595l-0.323,1.515H321.074z"/>
	<path fill="#009969" d="M331.691,153.369c-2.655,0.298-6.338,0.538-5.593-2.998l2.735-12.867h-1.782l0.677-3.197h1.751l1.106-5.221
		H335l-1.111,5.221h1.855l-0.688,3.197h-1.847l-2.507,11.785c-0.066,0.813,1.16,0.712,1.717,0.644L331.691,153.369z"/>
	<path fill="#009969" d="M341.125,137.672h0.061c0.835-1.381,1.541-2.156,2.291-2.692c1.475-1.046,2.304-0.975,2.943-1.011
		l-1.1,5.186c-2.37-0.233-4.357,0.372-5.019,3.167l-2.329,10.975h-4.379l4.035-18.99h4.209L341.125,137.672z"/>
	<path fill="#009969" d="M344.269,153.296l4.035-18.99h4.379l-4.036,18.99H344.269z M348.793,132.015l0.843-3.977h4.374
		l-0.842,3.977H348.793z"/>
	<path fill="#009969" d="M361.92,140.908l0.448-2.123c0.157-1.044-0.22-1.617-1.169-1.617c-1.68,0-2.09,1.918-2.551,4.247
		l-0.949,4.473c-0.892,3.707-0.601,4.378,0.682,4.546c1.354-0.029,1.648-1.276,2.111-2.792l0.372-1.754h4.378l-0.373,1.754
		c-0.849,3.969-2.957,6.162-7.308,6.162c-3.876,0-5.66-2.048-4.419-7.105l1.312-6.163c1.099-5.324,4.028-6.736,7.362-6.736
		c4.41,0,5.438,2.762,4.803,5.595l-0.317,1.515H361.92z"/>
	<path fill="#009969" d="M366.562,153.296l4.033-18.99h4.378l-4.031,18.99H366.562z M371.088,132.015l0.841-3.977h4.373
		l-0.846,3.977H371.088z"/>
	<path fill="#009969" d="M383.949,147.068c-0.459,2.191-1.418,3.365-2.835,3.365c-1.348,0-1.507-1.444-1.226-3.265l1.344-6.331
		c0.533-1.886,0.709-3.67,2.767-3.67c2.053,0,1.552,2.697,1.161,4.207L383.949,147.068z M382.623,153.296h4.379l5.363-25.258h-4.372
		l-1.386,6.5c-0.116,0.573-0.195,1.115-0.216,1.688h-0.066c-0.493-1.82-1.536-2.46-3.396-2.428c-2.846,0.066-4.802,1.514-6.01,6.736
		l-1.462,6.867c-0.544,3.031-0.483,6.401,3.219,6.401c1.743-0.102,3.062-0.604,4.309-2.524h0.065L382.623,153.296z"/>
	<path fill="#009969" d="M400.008,145.349c-0.494,1.819-0.713,5.084-3.304,5.084c-1.617,0-1.851-0.978-1.543-2.427
		c0.177-0.803,0.479-1.746,1.229-2.288c1.347-0.938,2.816-1.679,4.051-2.419L400.008,145.349z M403.058,153.296
		c-0.042-0.873,0.011-1.747,0.208-2.661l2.378-11.207c0.603-2.498,0.892-5.63-5.069-5.63c-5.487,0-7.2,2.529-7.931,6.13h4.168
		c0.336-1.717,0.895-2.761,2.877-2.761c1.187,0,1.826,0.133,1.846,0.977c0.052,1.553-0.813,2.391-2.826,3.168
		c-3.733,1.413-7.017,2.454-7.94,6.801c-0.831,3.906,0.339,5.69,3.877,5.69c1.479,0,3.004-0.88,4.357-2.461h0.063
		c-0.207,0.677-0.321,1.35-0.141,1.954H403.058z"/>
	<path fill="#009969" d="M415.603,147.068c-0.465,2.191-1.418,3.365-2.84,3.365c-1.345,0-1.507-1.444-1.227-3.265l1.347-6.331
		c0.542-1.886,0.719-3.67,2.772-3.67c2.05,0,1.552,2.697,1.161,4.207L415.603,147.068z M414.279,153.296h4.378l5.374-25.258h-4.384
		l-1.382,6.5c-0.118,0.573-0.204,1.115-0.216,1.688h-0.073c-0.486-1.82-1.534-2.46-3.387-2.428
		c-2.847,0.066-4.801,1.514-6.011,6.736l-1.459,6.867c-0.546,3.031-0.49,6.401,3.217,6.401c1.738-0.102,3.058-0.604,4.308-2.524
		h0.067L414.279,153.296z"/>
</g>
</svg>
