<svg xmlns="http://www.w3.org/2000/svg" xmlns:xlink="http://www.w3.org/1999/xlink" version="1.1" width="424.031" height="153.907" enable-background="new 0 0 424.031 153.907" xml:space="preserve"><rect id="backgroundrect" width="100%" height="100%" x="0" y="0" fill="none" stroke="none"/>

<g class="currentLayer" style=""><title>Layer 1</title><g id="svg_1" class="selected" fill="#ffffff" fill-opacity="1">
	<g id="svg_2" fill="#ffffff" fill-opacity="1">
		<g id="svg_3" fill="#ffffff" fill-opacity="1">
			<path fill-rule="evenodd" clip-rule="evenodd" fill="#ffffff" d="M147.242,1.6854575877189637 c-13.159,2.6740000000000004 -25.657,11.214 -34.298,23.444 c-5.229,7.404 -11.768,20.168 -13.193,38.965 c-1.034,13.72 2.79,27.547 9.991,36.091 c8.575,10.197 18.321,14.521 32.588,14.453 c13.594,-0.05500000000000001 21.709,-4.398 26.637,-7.655 c18.479,-12.269 24.373,-31.947 24.609,-32.777 l0.5720000000000001,-1.955 h-25.873 l-0.42600000000000005,0.776 c-0.05600000000000001,0.09100000000000003 -5.3100000000000005,9.449 -12.012,12.487 c-7.293,3.316 -9.239,3.268 -13.491,3.173 l-0.6960000000000002,-0.015000000000000003 c-9.425,-0.20500000000000002 -18.705,-9.212 -17.923000000000002,-23.932 c0.771,-14.449 4.664,-20.677 8.579,-25.81 c5.115,-6.68 9.831,-10.493 20.077,-11.522 c8.356,-0.8350000000000001 13.353,3.123 15.59,5.564 c5.6290000000000004,6.114 6.455,13.364 6.459,13.434 l0.131,1.256 h1.079 h23.245 l-0.08200000000000002,-1.7550000000000001 c-0.030000000000000006,-0.8650000000000001 -1.109,-21.27 -15.003,-34.459 C174.734,2.8474575877189636 160.387,-0.9845424122810364 147.242,1.6854575877189637 zM111.679,97.90445758771897 c-6.708,-7.962 -10.271,-20.902 -9.299,-33.769 c1.367,-17.945 7.574,-30.093 12.541,-37.122 c8.201,-11.606 20.076,-19.72 32.572,-22.261 c12.451,-2.532 26.011,1.074 34.556,9.184 C192.919,24.254457587718964 195.439,39.56545758771897 196,44.548457587718964 c-2.6,0 -17.458,0 -19.149,0 c-0.47900000000000004,-2.539 -2.067,-8.571 -7.008,-13.94 c-2.523,-2.755 -8.161,-7.234 -17.487,-6.302 c-11.118,1.113 -16.463,5.478 -21.943,12.635 c-4.076,5.339 -8.501,12.336 -9.322,27.843 c-0.8820000000000001,16.6 9.634,26.771 20.307,27.008 c0.008000000000000002,0 0.6910000000000002,0.017000000000000005 0.6910000000000002,0.017000000000000005 c4.339,0.08700000000000002 6.725,0.14600000000000002 14.522,-3.3930000000000002 c6.495,-2.944 11.488,-10.615 12.948,-13.05 c1.267,0 17.806,0 20.822,0 c-1.8900000000000001,5.044 -8.258,19.429 -22.568,28.925 c-4.652,3.079 -12.333,7.176 -25.291,7.228 C128.987,111.58845758771896 119.762,107.51545758771897 111.679,97.90445758771897 z" id="svg_4" fill-opacity="1"/>
			<path fill-rule="evenodd" clip-rule="evenodd" fill="#ffffff" d="M179.11,41.127457587718965 h13.276 c0,0 -2.2560000000000002,-16.443 -12.837,-25.132 C172.209,9.967457587718963 159.727,5.398457587718964 147,7.983457587718964 c-12.729,2.585 -22.125,10.455 -29.875,21.437 c-5.844,8.268 -10.75,20.572 -11.859,33.987 c-1.113,13.425 2.934,25.425 9.193,32.865 c7.6690000000000005,9.111 16.086,12.277 28.168,12.277 c12.076,0 18.568,-3.805 23.879,-7.155 c13.088,-8.275 18.85,-22.55 18.85,-22.55 h-14.246 c0,0 -7.41,9.987 -14.366,13.14 c-7.617,3.457 -12.042,3.4050000000000002 -16.611,3.126 c-3.617,-0.22000000000000003 -21.658,-4.837 -22.077,-27.996 c-0.26,-14.558 5.3100000000000005,-26.555 10.571,-32.842 c5.26,-6.274 12.253,-13.725 25.527,-13.725 c11.34,0 15.593,5.142 18.988,8.587 C177.017,33.03745758771896 179.11,41.127457587718965 179.11,41.127457587718965 z" id="svg_5" fill-opacity="1"/>
		</g>
		<g id="svg_6" fill="#ffffff" fill-opacity="1">
			<path fill-rule="evenodd" clip-rule="evenodd" fill="#ffffff" d="M327.991,3.0304575877189635 h-62.407 l-20.539,110.525 h63.164 l5.482,-26.836 c0,0 -32.792,0.016000000000000004 -36.214,0.021000000000000005 c0.5650000000000001,-2.817 2.7960000000000003,-13.829 3.185,-15.782 c2.378,0.0020000000000000005 36.691,0.03400000000000001 36.691,0.03400000000000001 l4.059,-26.884 c0,0 -32.378,0 -35.741,0 c0.509,-2.736 2.3890000000000002,-12.932 2.746,-14.887 c2.42,0 36.219,0 36.219,0 l5.259,-26.19 H327.991 zM326.088,6.149457587718963 c-0.5900000000000001,2.9610000000000003 -3.593,17.909 -4.002,19.954 c-2.375,0 -36.261,0 -36.261,0 l-3.9,21.119 c0,0 32.605,0 35.865,0 c-0.43300000000000005,2.8770000000000002 -2.787,18.475 -3.121,20.656 c-2.484,-0.006000000000000002 -36.555,-0.036000000000000004 -36.555,-0.036000000000000004 l-4.442,22.011 c0,0 32.777,-0.021000000000000005 36.206,-0.021000000000000005 c-0.6170000000000001,2.995 -3.791,18.558 -4.21,20.608 c-2.362,0 -53.447,0 -56.881,0 c0.6520000000000001,-3.52 18.934,-101.847 19.389,-104.291 C270.575,6.149457587718963 322.606,6.149457587718963 326.088,6.149457587718963 z" id="svg_7" fill-opacity="1"/>
			<polygon fill-rule="evenodd" clip-rule="evenodd" fill="#ffffff" points="252.0399932861328,106.9354550242424 302.96600341796875,106.9354550242424 305.85400390625,93.33145874738693 268.8299865722656,93.32345551252365 274.6789855957031,64.33845871686935 311.34698486328125,64.33845871686935 313.51800537109375,50.94845932722092 277.2869873046875,50.94845932722092 282.9989929199219,22.813457190990448 319.2359924316406,22.813457190990448 322.0570068359375,9.581457793712616 270.4849853515625,9.581457793712616 " id="svg_8" fill-opacity="1"/>
		</g>
		<g id="svg_9" fill="#ffffff" fill-opacity="1">
			<polygon fill-rule="evenodd" clip-rule="evenodd" fill="#ffffff" points="191.23800659179688,106.9354550242424 205.2689971923828,106.9354550242424 213.875,64.33845871686935 250.54800415039062,64.33845871686935 252.72000122070312,50.94845932722092 216.47300720214844,50.94845932722092 221.3260040283203,22.813457190990448 257.9909973144531,22.813457190990448 260.65899658203125,9.581457793712616 209.67799377441406,9.581457793712616 " id="svg_10" fill-opacity="1"/>
			<path fill-rule="evenodd" clip-rule="evenodd" fill="#ffffff" d="M266.901,3.0304575877189635 h-62.397 L183.963,113.53745758771896 l26.884,0.24600000000000002 c0,0 8.25,-40.471 8.729,-42.826 c2.375,0.0020000000000000005 36.693,0.03400000000000001 36.693,0.03400000000000001 l4.057,-26.884 c0,0 -32.37,0 -35.739,0 c0.503,-2.736 2.39,-12.929 2.7520000000000002,-14.887 c2.41,0 36.214,0 36.214,0 l5.258,-26.19 H266.901 zM265.009,6.149457587718963 c-0.6000000000000001,2.9610000000000003 -3.598,17.909 -4.013,19.954 c-2.373,0 -36.251,0 -36.251,0 l-3.9,21.119 c0,0 32.602,0 35.86,0 c-0.43100000000000005,2.8770000000000002 -2.786,18.475 -3.118,20.656 c-2.485,-0.006000000000000002 -36.554,-0.036000000000000004 -36.554,-0.036000000000000004 s-8.249,40.437 -8.727,42.8 c-2.112,-0.017000000000000005 -17.634,-0.16000000000000003 -20.6,-0.18800000000000003 c0.6450000000000001,-3.483 18.926,-101.86 19.384,-104.304 C209.495,6.149457587718963 261.515,6.149457587718963 265.009,6.149457587718963 z" id="svg_11" fill-opacity="1"/>
		</g>
	</g>
	<path fill="#ffffff" d="M15.813,145.15545758771896 c-0.135,0.47300000000000003 -0.276,0.975 -0.40700000000000003,1.449 c-1.219,4.613 -3.5220000000000002,8.149000000000001 -8.77,8.149000000000001 c-7.743,0 -7.209,-4.918 -5.776,-11.654 l0.7670000000000001,-3.604 c1.5670000000000002,-6.433 3.09,-11.213 10.636,-11.213 c4.192,0.06300000000000001 6.09,2.221 5.51,6.533 c-0.06400000000000002,0.6400000000000001 -0.135,1.278 -0.30100000000000005,1.92 H12.82 c0.139,-1.617 0.9540000000000001,-4.65 -1.37,-4.65 c-3.7,0 -4.335,4.415 -4.75,6.365 l-1.491,7.004 c-0.44500000000000006,2.09 -0.999,5.493 2.237,5.493 c2.584,0 3.173,-4.18 3.62,-5.793 H15.813 z" id="svg_12" fill-opacity="1"/>
	<path fill="#ffffff" d="M23.203,141.61645758771897 c0.37400000000000005,-1.78 0.7630000000000001,-3.6020000000000003 3.085,-3.6020000000000003 c2.191,0 1.803,1.8210000000000002 1.4260000000000002,3.6020000000000003 l-1.346,6.334 c-0.49400000000000005,2.325 -0.8820000000000001,3.33 -2.898,3.33 c-2.122,0 -2.109,-1.005 -1.616,-3.33 L23.203,141.61645758771897 zM22.751,154.65045758771896 c5.639,0.10400000000000001 7.183,-2.726 8.549,-9.326 c1.351,-6.504 2.207,-10.679 -4.295,-10.679 c-6.607,0 -7.554,4.175 -8.964,10.679 C16.595,151.92545758771897 16.974,154.75445758771897 22.751,154.65045758771896 z" id="svg_13" fill-opacity="1"/>
	<path fill="#ffffff" d="M40.425,137.10545758771897 h0.07100000000000001 c1.4140000000000001,-2.088 3.263,-2.394 4.695,-2.46 c1.625,-0.03200000000000001 3.625,0.6760000000000002 3.555,2.46 c1.224,-1.649 2.775,-2.46 4.931,-2.46 c3.23,0 4.218,2.021 3.791,4.041 l-3.285,15.457 H49.8 l2.726,-12.832 c0.37300000000000005,-1.714 0.56,-3.3970000000000002 -1.3860000000000001,-3.297 c-1.904,0.09900000000000003 -2.52,1.408 -2.991,3.637 l-2.657,12.492 h-4.383 l2.779,-13.067 c0.36000000000000004,-1.6800000000000002 0.525,-3.098 -1.504,-3.062 c-2.061,0.03400000000000001 -2.479,1.5470000000000002 -2.927,3.637 l-2.656,12.492 h-4.377 l4.041,-18.99 h4.371 L40.425,137.10545758771897 z" id="svg_14" fill-opacity="1"/>
	<path fill="#ffffff" d="M57.887,154.14345758771896 l4.035,-18.99 h4.376 l-4.04,18.99 H57.887 zM62.405,132.86245758771895 l0.8520000000000001,-3.977 h4.372 l-0.8400000000000001,3.977 H62.405 z" id="svg_15" fill-opacity="1"/>
	<path fill="#ffffff" d="M70.399,147.88045758771895 c-1.082,3.5 0.28200000000000003,3.4 1.295,3.4 c1.246,0 2.313,-0.906 2.268,-2.117 c0.16600000000000004,-1.079 -0.9570000000000001,-1.6830000000000003 -1.6750000000000003,-2.2560000000000002 l-2.038,-1.653 c-1.87,-1.5150000000000001 -2.914,-3.262 -2.329,-5.991 c0.6200000000000001,-2.931 3.301,-4.617 7.507,-4.617 c4.248,0 5.7330000000000005,2.226 4.761,6.297 h-4.374 c0.544,-2.122 0.11800000000000002,-2.928 -1.3980000000000001,-2.928 c-1.05,0 -1.9500000000000002,0.47000000000000003 -2.184,1.5470000000000002 c-0.23500000000000001,1.121 0.466,1.616 1.186,2.193 l3.053,2.423 c0.979,0.6340000000000001 2.343,2.462 2.203,3.737 c-0.32800000000000007,3.303 -1.8690000000000002,6.735 -7.929,6.735 c-2.324,0 -6.464,-0.976 -4.727,-6.771 H70.399 z" id="svg_16" fill-opacity="1"/>
	<path fill="#ffffff" d="M80.178,154.14345758771896 l4.031,-18.99 h4.388 l-4.042,18.99 H80.178 zM84.702,132.86245758771895 l0.8460000000000001,-3.977 h4.375 l-0.8410000000000001,3.977 H84.702 z" id="svg_17" fill-opacity="1"/>
	<path fill="#ffffff" d="M94.861,141.61645758771897 c0.37900000000000006,-1.78 0.7620000000000001,-3.6020000000000003 3.091,-3.6020000000000003 c2.192,0 1.803,1.8210000000000002 1.4260000000000002,3.6020000000000003 l-1.351,6.334 c-0.49300000000000005,2.325 -0.8760000000000001,3.33 -2.898,3.33 c-2.116,0 -2.11,-1.005 -1.6110000000000002,-3.33 L94.861,141.61645758771897 zM96.164,132.96345758771898 h3.401 l6.034,-4.9190000000000005 h-5.225 L96.164,132.96345758771898 zM94.419,154.65045758771896 c5.635,0.10400000000000001 7.174,-2.726 8.55,-9.326 c1.346,-6.504 2.2,-10.679 -4.301,-10.679 c-6.602,0 -7.557,4.175 -8.967,10.679 C88.264,151.92545758771897 88.638,154.75445758771897 94.419,154.65045758771896 z" id="svg_18" fill-opacity="1"/>
	<path fill="#ffffff" d="M111.916,137.10545758771897 h0.07100000000000001 c1.441,-2.188 3.451,-2.46 4.458,-2.46 c2.499,0 4.212,1.449 3.355,4.851 l-3.119,14.647 h-4.3790000000000004 l2.693,-12.661 c0.3970000000000001,-1.851 0.44800000000000006,-3.064 -1.189,-3.132 c-1.6380000000000001,-0.06500000000000002 -2.534,1.485 -2.8970000000000002,3.505 l-2.615,12.288 h-4.374 l4.035,-18.99 h4.3790000000000004 L111.916,137.10545758771897 z" id="svg_19" fill-opacity="1"/>
	<path fill="#ffffff" d="M127.561,154.14345758771896 l5.371,-25.258 h13.37 l-0.791,3.706 h-8.656 l-1.356,6.399 h8.117 l-0.792,3.701 h-8.116 l-2.434,11.451 H127.561 z" id="svg_20" fill-opacity="1"/>
	<path fill="#ffffff" d="M149.599,142.19345758771897 l0.16800000000000004,-0.776 c0.36100000000000004,-1.718 0.6200000000000001,-3.402 2.8120000000000003,-3.402 c1.746,0 2.12,0.6080000000000001 1.746,2.529 l-0.3480000000000001,1.649 H149.599 zM144.27,146.67145758771898 c-1.29,5.5920000000000005 0.258,7.979 5.308,7.979 c4.474,0 6.808,-2.693 7.538,-6.938 h-4.377 c-0.44400000000000006,2.394 -1.163,3.567 -2.781,3.567 c-1.312,0 -2.156,-0.47000000000000003 -1.6630000000000003,-2.964 l0.5890000000000001,-2.7600000000000002 h8.756 l0.538,-2.556 c1.104,-5.191 1.1400000000000001,-8.355 -4.957,-8.355 c-4.308,0 -7.143,2.563 -7.890000000000001,7.039 L144.27,146.67145758771898 z" id="svg_21" fill-opacity="1"/>
	<path fill="#ffffff" d="M168.287,147.91545758771898 c-0.465,2.191 -1.4220000000000002,3.365 -2.838,3.365 c-1.35,0 -1.51,-1.444 -1.224,-3.265 l1.3450000000000002,-6.331 c0.535,-1.8860000000000001 0.7100000000000001,-3.67 2.766,-3.67 c2.062,0 1.5510000000000002,2.697 1.1600000000000001,4.207 L168.287,147.91545758771898 zM166.959,154.14345758771896 h4.38 l5.37,-25.258 h-4.384 l-1.374,6.5 c-0.12100000000000001,0.5730000000000001 -0.20800000000000002,1.115 -0.22800000000000004,1.6880000000000002 h-0.06500000000000002 c-0.48900000000000005,-1.82 -1.5270000000000001,-2.46 -3.395,-2.428 c-2.842,0.06600000000000002 -4.797,1.514 -6.01,6.736 l-1.461,6.867 c-0.541,3.031 -0.48000000000000004,6.401 3.224,6.401 c1.738,-0.10200000000000001 3.058,-0.6040000000000001 4.308,-2.524 h0.07 L166.959,154.14345758771896 z" id="svg_22" fill-opacity="1"/>
	<path fill="#ffffff" d="M181.259,142.19345758771897 l0.16100000000000003,-0.776 c0.36700000000000005,-1.718 0.6240000000000001,-3.402 2.811,-3.402 c1.7530000000000001,0 2.129,0.6080000000000001 1.7570000000000001,2.529 l-0.35800000000000004,1.649 H181.259 zM175.923,146.67145758771898 c-1.287,5.5920000000000005 0.261,7.979 5.316,7.979 c4.473,0 6.8,-2.693 7.53,-6.938 h-4.38 c-0.43700000000000006,2.394 -1.157,3.567 -2.775,3.567 c-1.318,0 -2.16,-0.47000000000000003 -1.661,-2.964 l0.5830000000000001,-2.7600000000000002 h8.762 l0.546,-2.556 c1.102,-5.191 1.133,-8.355 -4.965,-8.355 c-4.311,0 -7.143,2.563 -7.893,7.039 L175.923,146.67145758771898 z" id="svg_23" fill-opacity="1"/>
	<path fill="#ffffff" d="M197.97,138.51945758771896 h0.05900000000000001 c0.8370000000000001,-1.381 1.544,-2.156 2.297,-2.692 c1.466,-1.046 2.292,-0.975 2.938,-1.011 l-1.099,5.186 c-2.372,-0.233 -4.359,0.37200000000000005 -5.022,3.167 l-2.333,10.975 h-4.375 l4.036,-18.99 h4.211 L197.97,138.51945758771896 z" id="svg_24" fill-opacity="1"/>
	<path fill="#ffffff" d="M210.373,146.19645758771895 c-0.48400000000000004,1.819 -0.7070000000000001,5.084 -3.302,5.084 c-1.6150000000000002,0 -1.843,-0.978 -1.54,-2.427 c0.17700000000000002,-0.803 0.47300000000000003,-1.746 1.229,-2.2880000000000003 c1.3450000000000002,-0.9380000000000001 2.821,-1.6790000000000003 4.055,-2.419 L210.373,146.19645758771895 zM213.437,154.14345758771896 c-0.05300000000000001,-0.8730000000000001 0,-1.747 0.18800000000000003,-2.661 l2.39,-11.207 c0.5920000000000001,-2.498 0.8920000000000001,-5.63 -5.074,-5.63 c-5.485,0 -7.204,2.529 -7.928,6.13 h4.177 c0.32700000000000007,-1.717 0.8850000000000001,-2.761 2.875,-2.761 c1.171,0 1.819,0.133 1.843,0.977 c0.04000000000000001,1.553 -0.809,2.391 -2.831,3.168 c-3.732,1.413 -7.017,2.454 -7.943,6.801 c-0.8270000000000001,3.906 0.3360000000000001,5.69 3.874,5.69 c1.481,0 3.015,-0.8800000000000001 4.366,-2.461 h0.06600000000000002 c-0.21200000000000002,0.6770000000000002 -0.32400000000000007,1.35 -0.14600000000000002,1.9540000000000002 H213.437 z" id="svg_25" fill-opacity="1"/>
	<path fill="#ffffff" d="M216.937,154.14345758771896 l5.368,-25.258 h4.38 l-5.37,25.258 H216.937 z" id="svg_26" fill-opacity="1"/>
	<path fill="#ffffff" d="M241.738,147.91545758771898 c-0.466,2.191 -1.432,3.365 -2.841,3.365 c-1.346,0 -1.506,-1.444 -1.225,-3.265 l1.343,-6.331 c0.542,-1.8860000000000001 0.7210000000000001,-3.67 2.771,-3.67 c2.053,0 1.545,2.697 1.153,4.207 L241.738,147.91545758771898 zM240.412,154.14345758771896 h4.374 l5.378,-25.258 h-4.384 l-1.3800000000000001,6.5 c-0.12400000000000001,0.5730000000000001 -0.20600000000000002,1.115 -0.22300000000000003,1.6880000000000002 h-0.07100000000000001 c-0.48800000000000004,-1.82 -1.533,-2.46 -3.392,-2.428 c-2.841,0.06600000000000002 -4.8,1.514 -6.01,6.736 l-1.461,6.867 c-0.541,3.031 -0.48700000000000004,6.401 3.226,6.401 c1.7360000000000002,-0.10200000000000001 3.056,-0.6040000000000001 4.302,-2.524 h0.07100000000000001 L240.412,154.14345758771896 z" id="svg_27" fill-opacity="1"/>
	<path fill="#ffffff" d="M254.7,142.19345758771897 l0.17200000000000001,-0.776 c0.36100000000000004,-1.718 0.6180000000000001,-3.402 2.807,-3.402 c1.7520000000000002,0 2.1310000000000002,0.6080000000000001 1.7550000000000001,2.529 l-0.35100000000000003,1.649 H254.7 zM249.376,146.67145758771898 c-1.29,5.5920000000000005 0.24900000000000003,7.979 5.309,7.979 c4.473,0 6.797,-2.693 7.536,-6.938 h-4.383 c-0.43600000000000005,2.394 -1.163,3.567 -2.775,3.567 c-1.314,0 -2.156,-0.47000000000000003 -1.6620000000000001,-2.964 l0.5850000000000001,-2.7600000000000002 h8.76 l0.541,-2.556 c1.104,-5.191 1.139,-8.355 -4.957,-8.355 c-4.313,0 -7.144,2.563 -7.894,7.039 L249.376,146.67145758771898 z" id="svg_28" fill-opacity="1"/>
	<path fill="#ffffff" d="M271.432,154.14345758771896 l5.365,-25.258 h13.272 l-0.794,3.706 h-8.554 l-1.353,6.371 h7.881 l-0.79,3.696 h-7.875 l-1.6580000000000001,7.782 h8.554 l-0.783,3.702 H271.432 z" id="svg_29" fill-opacity="1"/>
	<path fill="#ffffff" d="M287.591,154.14345758771896 l5.368,-25.258 h4.377 l-5.372,25.258 H287.591 z" id="svg_30" fill-opacity="1"/>
	<path fill="#ffffff" d="M302.122,142.19345758771897 l0.16700000000000004,-0.776 c0.36300000000000004,-1.718 0.6220000000000001,-3.402 2.811,-3.402 c1.746,0 2.123,0.6080000000000001 1.746,2.529 l-0.3400000000000001,1.649 H302.122 zM296.792,146.67145758771898 c-1.283,5.5920000000000005 0.256,7.979 5.3100000000000005,7.979 c4.48,0 6.803,-2.693 7.533,-6.938 h-4.38 c-0.43900000000000006,2.394 -1.163,3.567 -2.777,3.567 c-1.318,0 -2.159,-0.47000000000000003 -1.6630000000000003,-2.964 l0.5880000000000001,-2.7600000000000002 h8.761 l0.544,-2.556 c1.099,-5.191 1.134,-8.355 -4.956,-8.355 c-4.318,0 -7.149,2.563 -7.898,7.039 L296.792,146.67145758771898 z" id="svg_31" fill-opacity="1"/>
	<path fill="#ffffff" d="M321.074,141.75545758771895 l0.45,-2.123 c0.15300000000000002,-1.044 -0.23,-1.617 -1.1680000000000001,-1.617 c-1.6880000000000002,0 -2.096,1.9180000000000001 -2.561,4.247 l-0.9480000000000001,4.473 c-0.8850000000000001,3.707 -0.5950000000000001,4.378 0.6860000000000002,4.546 c1.354,-0.029000000000000005 1.653,-1.276 2.109,-2.792 l0.37000000000000005,-1.754 h4.382 l-0.37300000000000005,1.754 c-0.8500000000000001,3.9690000000000003 -2.9610000000000003,6.162 -7.303,6.162 c-3.883,0 -5.663,-2.048 -4.422,-7.105 l1.3210000000000002,-6.163 c1.081,-5.324 4.017,-6.736 7.347,-6.736 c4.412,0 5.44,2.762 4.806,5.595 l-0.32300000000000006,1.5150000000000001 H321.074 z" id="svg_32" fill-opacity="1"/>
	<path fill="#ffffff" d="M331.691,154.21645758771896 c-2.6550000000000002,0.29800000000000004 -6.338,0.538 -5.593,-2.998 l2.7350000000000003,-12.867 h-1.782 l0.6770000000000002,-3.197 h1.7510000000000001 l1.106,-5.221 H335 l-1.111,5.221 h1.855 l-0.6880000000000002,3.197 h-1.847 l-2.507,11.785 c-0.06600000000000002,0.8130000000000001 1.1600000000000001,0.7120000000000001 1.717,0.6440000000000001 L331.691,154.21645758771896 z" id="svg_33" fill-opacity="1"/>
	<path fill="#ffffff" d="M341.125,138.51945758771896 h0.06100000000000001 c0.8350000000000001,-1.381 1.541,-2.156 2.291,-2.692 c1.475,-1.046 2.3040000000000003,-0.975 2.943,-1.011 l-1.1,5.186 c-2.37,-0.233 -4.357,0.37200000000000005 -5.019,3.167 l-2.329,10.975 h-4.3790000000000004 l4.035,-18.99 h4.209 L341.125,138.51945758771896 z" id="svg_34" fill-opacity="1"/>
	<path fill="#ffffff" d="M344.269,154.14345758771896 l4.035,-18.99 h4.3790000000000004 l-4.036,18.99 H344.269 zM348.793,132.86245758771895 l0.8430000000000001,-3.977 h4.374 l-0.8420000000000001,3.977 H348.793 z" id="svg_35" fill-opacity="1"/>
	<path fill="#ffffff" d="M361.92,141.75545758771895 l0.44800000000000006,-2.123 c0.15700000000000003,-1.044 -0.22000000000000003,-1.617 -1.169,-1.617 c-1.6800000000000002,0 -2.09,1.9180000000000001 -2.551,4.247 l-0.9490000000000001,4.473 c-0.8920000000000001,3.707 -0.6010000000000001,4.378 0.6820000000000002,4.546 c1.354,-0.029000000000000005 1.6480000000000001,-1.276 2.111,-2.792 l0.37200000000000005,-1.754 h4.378 l-0.37300000000000005,1.754 c-0.8490000000000001,3.9690000000000003 -2.957,6.162 -7.308,6.162 c-3.8760000000000003,0 -5.66,-2.048 -4.4190000000000005,-7.105 l1.312,-6.163 c1.099,-5.324 4.028,-6.736 7.362,-6.736 c4.41,0 5.438,2.762 4.803,5.595 l-0.31700000000000006,1.5150000000000001 H361.92 z" id="svg_36" fill-opacity="1"/>
	<path fill="#ffffff" d="M366.562,154.14345758771896 l4.033,-18.99 h4.378 l-4.031,18.99 H366.562 zM371.088,132.86245758771895 l0.8410000000000001,-3.977 h4.373 l-0.8460000000000001,3.977 H371.088 z" id="svg_37" fill-opacity="1"/>
	<path fill="#ffffff" d="M383.949,147.91545758771898 c-0.459,2.191 -1.4180000000000001,3.365 -2.835,3.365 c-1.348,0 -1.5070000000000001,-1.444 -1.226,-3.265 l1.344,-6.331 c0.533,-1.8860000000000001 0.7090000000000001,-3.67 2.7670000000000003,-3.67 c2.053,0 1.552,2.697 1.161,4.207 L383.949,147.91545758771898 zM382.623,154.14345758771896 h4.3790000000000004 l5.363,-25.258 h-4.372 l-1.3860000000000001,6.5 c-0.11600000000000002,0.5730000000000001 -0.19500000000000003,1.115 -0.21600000000000003,1.6880000000000002 h-0.06600000000000002 c-0.49300000000000005,-1.82 -1.536,-2.46 -3.396,-2.428 c-2.846,0.06600000000000002 -4.802,1.514 -6.01,6.736 l-1.462,6.867 c-0.544,3.031 -0.48300000000000004,6.401 3.219,6.401 c1.743,-0.10200000000000001 3.062,-0.6040000000000001 4.309,-2.524 h0.06500000000000002 L382.623,154.14345758771896 z" id="svg_38" fill-opacity="1"/>
	<path fill="#ffffff" d="M400.008,146.19645758771895 c-0.49400000000000005,1.819 -0.7130000000000001,5.084 -3.3040000000000003,5.084 c-1.617,0 -1.851,-0.978 -1.5430000000000001,-2.427 c0.17700000000000002,-0.803 0.47900000000000004,-1.746 1.229,-2.2880000000000003 c1.347,-0.9380000000000001 2.816,-1.6790000000000003 4.051,-2.419 L400.008,146.19645758771895 zM403.058,154.14345758771896 c-0.04200000000000001,-0.8730000000000001 0.011000000000000003,-1.747 0.20800000000000002,-2.661 l2.378,-11.207 c0.6030000000000001,-2.498 0.8920000000000001,-5.63 -5.069,-5.63 c-5.487,0 -7.2,2.529 -7.931,6.13 h4.168 c0.3360000000000001,-1.717 0.8950000000000001,-2.761 2.8770000000000002,-2.761 c1.187,0 1.826,0.133 1.846,0.977 c0.05200000000000001,1.553 -0.8130000000000001,2.391 -2.826,3.168 c-3.733,1.413 -7.017,2.454 -7.94,6.801 c-0.8310000000000001,3.906 0.3390000000000001,5.69 3.8770000000000002,5.69 c1.479,0 3.004,-0.8800000000000001 4.357,-2.461 h0.06300000000000001 c-0.20700000000000002,0.6770000000000002 -0.32100000000000006,1.35 -0.14100000000000001,1.9540000000000002 H403.058 z" id="svg_39" fill-opacity="1"/>
	<path fill="#ffffff" d="M415.603,147.91545758771898 c-0.465,2.191 -1.4180000000000001,3.365 -2.84,3.365 c-1.3450000000000002,0 -1.5070000000000001,-1.444 -1.227,-3.265 l1.347,-6.331 c0.542,-1.8860000000000001 0.7190000000000001,-3.67 2.7720000000000002,-3.67 c2.05,0 1.552,2.697 1.161,4.207 L415.603,147.91545758771898 zM414.279,154.14345758771896 h4.378 l5.374,-25.258 h-4.384 l-1.3820000000000001,6.5 c-0.11800000000000002,0.5730000000000001 -0.20400000000000001,1.115 -0.21600000000000003,1.6880000000000002 h-0.07300000000000001 c-0.48600000000000004,-1.82 -1.534,-2.46 -3.387,-2.428 c-2.847,0.06600000000000002 -4.801,1.514 -6.011,6.736 l-1.459,6.867 c-0.546,3.031 -0.49000000000000005,6.401 3.217,6.401 c1.738,-0.10200000000000001 3.058,-0.6040000000000001 4.308,-2.524 h0.06700000000000002 L414.279,154.14345758771896 z" id="svg_40" fill-opacity="1"/>
</g></g></svg>