<svg height="512pt" viewBox="0 -19 512 512" width="512pt" xmlns="http://www.w3.org/2000/svg"><path d="m496.800781 0h-481.601562c-8.394531 0-15.199219 6.804688-15.199219 15.199219v444.242187c0 8.390625 6.804688 15.195313 15.199219 15.195313h481.601562c8.394531 0 15.199219-6.804688 15.199219-15.195313v-444.242187c0-8.394531-6.804688-15.199219-15.199219-15.199219zm-466.40625 30.394531h451.210938v62.101563h-451.210938zm451.210938 413.847657h-451.210938v-321.351563h451.210938zm0 0"/><path d="m166.457031 357.472656c2.96875 2.96875 6.859375 4.449219 10.746094 4.449219 3.890625 0 7.78125-1.484375 10.746094-4.449219 5.9375-5.9375 5.9375-15.558594 0-21.496094l-52.410157-52.410156 52.410157-52.410156c5.9375-5.933594 5.9375-15.558594 0-21.492188-5.933594-5.933593-15.554688-5.933593-21.492188 0l-63.15625 63.15625c-5.933593 5.933594-5.933593 15.558594 0 21.492188zm0 0"/><path d="m334.796875 325.230469-10.746094 10.746093c-5.9375 5.9375-5.9375 15.558594 0 21.496094 2.964844 2.964844 6.855469 4.449219 10.746094 4.449219 3.886719 0 7.777344-1.484375 10.746094-4.449219l63.15625-63.160156c5.933593-5.933594 5.933593-15.558594 0-21.492188l-63.15625-63.15625c-5.9375-5.9375-15.558594-5.9375-21.496094 0-5.933594 5.933594-5.933594 15.558594 0 21.492188l10.746094 10.746094 41.667969 41.664062zm0 0"/><path d="m223.605469 360.738281c1.921875.804688 3.917969 1.1875 5.875 1.1875 5.9375 0 11.578125-3.5 14.019531-9.316406l53.023438-126.316406c3.246093-7.738281-.390626-16.648438-8.132813-19.894531-7.738281-3.25-16.644531.390624-19.894531 8.128906l-53.019532 126.316406c-3.25 7.738281.390626 16.644531 8.128907 19.894531zm0 0"/><path d="m449.597656 46.25c-7.949218 0-15.566406 6.988281-15.199218 15.195312.367187 8.234376 6.679687 15.199219 15.199218 15.199219 7.949219 0 15.5625-6.992187 15.195313-15.199219-.367188-8.234374-6.675781-15.195312-15.195313-15.195312zm0 0"/><path d="m401.878906 46.25c-7.949218 0-15.566406 6.988281-15.199218 15.195312.371093 8.234376 6.679687 15.199219 15.199218 15.199219 7.949219 0 15.566406-6.992187 15.199219-15.199219-.371094-8.234374-6.679687-15.195312-15.199219-15.195312zm0 0"/><path d="m354.160156 46.25c-7.949218 0-15.5625 6.988281-15.195312 15.195312.367187 8.234376 6.675781 15.199219 15.195312 15.199219 7.949219 0 15.566406-6.992187 15.199219-15.199219-.367187-8.234374-6.675781-15.195312-15.199219-15.195312zm0 0"/></svg>