<svg xmlns="http://www.w3.org/2000/svg" xmlns:se="http://svg-edit.googlecode.com" xmlns:xlink="http://www.w3.org/1999/xlink" xmlns:dc="http://purl.org/dc/elements/1.1/" xmlns:cc="http://creativecommons.org/ns#" xmlns:rdf="http://www.w3.org/1999/02/22-rdf-syntax-ns#" xmlns:inkscape="http://www.inkscape.org/namespaces/inkscape" width="777" height="480" style="">                                    <title>my vector image</title>                                    <!-- Created with Vector Paint - http://www.vectorpaint.yaks.com/ https://chrome.google.com/webstore/detail/hnbpdiengicdefcjecjbnjnoifekhgdo -->                                    <rect id="backgroundrect" width="100%" height="100%" x="0" y="0" fill="#FFFFFF" stroke="none"/>                                <g class="currentLayer" style=""><title>Layer 1</title><path fill="#4a90d6" stroke="#222222" stroke-width="2" stroke-linejoin="round" stroke-dashoffset="" fill-rule="nonzero" marker-start="" marker-mid="" marker-end="" id="svg_7" d="M138.97779777534524,260.00346996751136 L139.73633621316162,260.00346996751136 L139.73633621316162,260.7620084053277 L138.97779777534524,260.7620084053277 L138.97779777534524,260.00346996751136 zM139.0662939264238,259.3334276807735 L139.0662939264238,259.91497381643273 L139.64784006208305,259.91497381643273 L139.64784006208305,259.3334276807735 L139.0662939264238,259.3334276807735 z" style="color: rgb(0, 0, 0);" class=""/><path fill="#009900" stroke="#b6b6b6" stroke-linejoin="round" stroke-dashoffset="" fill-rule="nonzero" marker-start="" marker-mid="" marker-end="" id="svg_26" d="M0,337.14285L0,130L525.71428,480L0,337.14285z" style="color: rgb(189, 209, 43);" class="" fill-opacity="1" opacity="0.46"/><rect fill="#009900" stroke="#b6b6b6" stroke-linejoin="round" stroke-dashoffset="" fill-rule="nonzero" opacity="0.46" id="svg_35" x="111" y="186" width="2" height="1" style="color: rgb(189, 209, 43);" class=""/><rect fill="#b8b804" stroke="#b6b6b6" stroke-linejoin="round" stroke-dashoffset="" fill-rule="nonzero" opacity="0.7" id="svg_37" x="0" y="335.8571472167969" width="778.4285888671875" height="141" style="color: rgb(189, 209, 43);" class="" fill-opacity="1"/><path fill="#ffffff" stroke="#b6b6b6" stroke-linejoin="round" stroke-dashoffset="" fill-rule="nonzero" opacity="0.45" marker-start="" marker-mid="" marker-end="" id="svg_40" d="M-1.42857,478.57143L-1.42857,335.71425L512.85718,477.14286L-1.42857,478.57143z" style="color: rgb(189, 209, 43);" class="" fill-opacity="1"/><path fill="#009900" fill-opacity="1" stroke="#b6b6b6" stroke-opacity="1" stroke-width="1" stroke-dasharray="none" stroke-linejoin="round" stroke-linecap="butt" stroke-dashoffset="" fill-rule="nonzero" opacity="0.46" marker-start="" marker-mid="" marker-end="" d="M265.39047219401164,176.88889434602538L265.39047219401164,175.46032289312552" id="svg_4" class=""/><path fill="#009900" fill-opacity="1" stroke="#b6b6b6" stroke-opacity="1" stroke-width="1" stroke-dasharray="none" stroke-linejoin="round" stroke-linecap="butt" stroke-dashoffset="" fill-rule="nonzero" opacity="0.46" marker-start="" marker-mid="" marker-end="" d="M265.39047219401164,175.46032289312552L269.6761865527112,169.74603708152608" id="svg_6" class=""/><path fill="#009900" fill-opacity="1" stroke="#b6b6b6" stroke-opacity="1" stroke-width="1" stroke-dasharray="none" stroke-linejoin="round" stroke-linecap="butt" stroke-dashoffset="" fill-rule="nonzero" opacity="0.46" marker-start="" marker-mid="" marker-end="" d="M273.9619009114108,169.74603708152608L275.39047236431065,171.17460853442594" id="svg_10" class=""/><path fill="#009900" fill-opacity="1" stroke="#b6b6b6" stroke-opacity="1" stroke-width="1" stroke-dasharray="none" stroke-linejoin="round" stroke-linecap="butt" stroke-dashoffset="" fill-rule="nonzero" opacity="0.46" marker-start="" marker-mid="" marker-end="" d="M278.2476152701104,172.6031799873258L279.67618672301023,175.46032289312552" id="svg_12" class=""/><rect fill="#000000" stroke="#000000" stroke-linejoin="round" stroke-dashoffset="" fill-rule="nonzero" id="svg_3" x="-1.1920928955078125e-7" y="320.28570556640625" width="775.5714721679688" height="0.14285708963871002" style="color: rgb(189, 209, 43);" class="" opacity="0.44"/><rect fill="#b6b6b6" stroke="#b6b6b6" stroke-linejoin="round" stroke-dashoffset="" fill-rule="nonzero" opacity="0.44" id="svg_9" x="0" y="-1.4285712242126465" width="776.0000610351562" height="100" style="color: rgb(189, 209, 43);" class="" fill-opacity="1" stroke-opacity="1"/><path fill="#919191" stroke="#b6b6b6" stroke-linejoin="round" stroke-dashoffset="" fill-rule="nonzero" opacity="0.82" marker-start="" marker-mid="" marker-end="" id="svg_16" d="M778.1428659372174,-93.28572 L556.714280117998,66.71429 L777.0782990513443,221 L778.1428659372174,-93.28572 z" style="color: rgb(189, 209, 43);" class="" fill-opacity="1"/><path fill="#919191" stroke="#b6b6b6" stroke-linejoin="round" stroke-dashoffset="" fill-rule="nonzero" opacity="0.82" marker-start="" marker-mid="" marker-end="" id="svg_22" d="M680.5470761327038,462.8721600987452 L680.5470761327038,462.8721600987452 C680.5470761327038,457.3493086444019 685.0242327801204,452.87215199698556 690.5470842344647,452.87215199698556 L690.5470842344647,452.87215199698556 C693.1992501415735,452.87215199698556 695.7427924707462,453.92572063579576 697.6181564062266,455.8010859135591 C699.4935223551304,457.6764518624654 700.5470923362242,460.21999217821224 700.5470923362242,462.8721600987452 L700.5470923362242,462.8721600987452 C700.5470923362242,468.3950108819483 696.069935688809,472.8721682005059 690.5470842344647,472.8721682005059 L690.5470842344647,472.8721682005059 C685.0242334512625,472.8721682005059 680.5470761327038,468.3950108819483 680.5470761327038,462.8721600987452 zM685.5470801835843,462.8721600987452 L685.5470801835843,462.8721600987452 C685.5470801835843,465.633585154776 687.7856598495753,467.87216414962614 690.5470842344647,467.87216414962614 C693.308510632778,467.87216414962614 695.5470882853454,465.633585154776 695.5470882853454,462.8721600987452 C695.5470882853454,460.11073504271513 693.3085092904946,457.87215604786576 690.5470842344647,457.87215604786576 L690.5470842344647,457.87215604786576 C687.7856598495753,457.87215604786576 685.5470801835843,460.11073571385657 685.5470801835843,462.8721600987452 z" style="color: rgb(189, 209, 43);"/><path fill="#ffffff" fill-opacity="1" stroke="#000000" stroke-opacity="1" stroke-width="1" stroke-dasharray="none" stroke-linejoin="round" stroke-linecap="butt" stroke-dashoffset="" fill-rule="nonzero" opacity="0.23" marker-start="" marker-mid="" marker-end="" d="M360.2857093811035,338.35714906454086 C360.2857093811035,209.90410726208717 473.4108080050564,105.85714340209961 613.0714235901833,105.85714340209961 C752.7320391753101,105.85714340209961 865.857137799263,209.90410726208717 865.857137799263,338.35714906454086 C865.857137799263,466.8101908669946 752.7320391753101,570.8571547269821 613.0714235901833,570.8571547269821 C473.4108080050564,570.8571547269821 360.2857093811035,466.8101908669946 360.2857093811035,338.35714906454086 z" id="svg_1" class=""/><path fill="#ffffff" fill-opacity="1" stroke="#000000" stroke-opacity="1" stroke-width="1" stroke-dasharray="none" stroke-linejoin="round" stroke-linecap="butt" stroke-dashoffset="" fill-rule="nonzero" opacity="0.23" marker-start="" marker-mid="" marker-end="" d="M377.42855349297423,337.6428765462315 C377.42855349297423,219.05566023696244 482.8819828883487,123.00001502645445 613.0714018949835,123.00001502645445 C743.2608209016183,123.00001502645445 848.7142502969928,219.05566023696244 848.7142502969928,337.6428765462315 C848.7142502969928,456.2300928555006 743.2608209016183,552.2857380660085 613.0714018949835,552.2857380660085 C482.8819828883487,552.2857380660085 377.42855349297423,456.2300928555006 377.42855349297423,337.6428765462315 z" class="" id="svg_8"/><path fill="#ffffff" stroke="#000000" stroke-linejoin="round" stroke-dashoffset="" fill-rule="nonzero" opacity="0.23" marker-start="" marker-mid="" marker-end="" id="svg_13" d="M-1.5838,477.86934L454.84478,-1.41638L582.70192,-2.13067L156.27334,478.58362L-1.5838,477.86934z" style="color: rgb(189, 209, 43);" class=""/></g><defs><filter id="f204" x="0" y="0" width="1" height="1" inkscape:label="Lightness-Contrast" inkscape:menu="Color" inkscape:menu-tooltip="Increase or decrease lightness and contrast" color-interpolation-filters="sRGB">
            <feFlood result="result1" flood-opacity="0" flood-color="#808080"/>
            <feBlend mode="normal" in2="SourceGraphic" result="result2"/>
            <feComposite k2="1" operator="arithmetic" in2="SourceGraphic"/>
            <feComposite operator="in" in2="SourceGraphic"/>
        </filter></defs></svg>