<svg xmlns="http://www.w3.org/2000/svg" xmlns:xlink="http://www.w3.org/1999/xlink" version="1.1" width="244.821" height="74.048" enable-background="new 0 0 244.821 74.048" xml:space="preserve" style=""><rect id="backgroundrect" width="100%" height="100%" x="0" y="0" fill="none" stroke="none"/>

<g class="currentLayer" style=""><title>Layer 1</title><g id="svg_1" class="selected" stroke="#ffffff" stroke-opacity="1" fill="#ffffff" fill-opacity="1">
	<polygon fill="#ffffff" points="236.175,20.422 237.427,20.422 237.679,19.17 236.425,19.17 236.175,20.422  " id="svg_2" stroke="#ffffff" stroke-opacity="1" fill-opacity="1"/>
	<polygon fill="#ffffff" points="237.177,21.675 235.924,21.675 234.546,28.441 235.674,28.441 237.177,21.675  " id="svg_3" stroke="#ffffff" stroke-opacity="1" fill-opacity="1"/>
	<polygon fill="#ffffff" points="240.184,19.17 239.057,19.17 237.052,28.441 238.304,28.441 240.184,19.17  " id="svg_4" stroke="#ffffff" stroke-opacity="1" fill-opacity="1"/>
	<polygon fill="#ffffff" points="244.821,39.592 244.821,33.578 145.088,33.578 145.088,33.578 147.719,30.446 148.973,28.942    149.973,27.439 150.852,26.061 151.728,24.557 152.355,23.179 152.981,21.801 153.357,20.422 153.734,19.044 153.984,17.667    154.109,16.413 154.109,15.161 153.984,13.908 153.859,12.654 153.483,11.402 153.483,11.402 152.981,9.898 152.48,9.021    152.104,8.269 152.104,8.269 150.977,6.766 150.977,6.766 149.85,5.513 148.596,4.385 147.093,3.383 145.589,2.506 143.083,1.503    143.083,1.503 141.83,1.127 141.83,1.127 140.453,0.752 138.949,0.376 137.571,0.125 136.067,0 136.067,0 134.814,0 133.686,0.125    132.559,0.251 131.682,0.501 131.682,0.501 132.935,0.877 134.188,1.253 136.569,2.38 136.569,2.38 136.693,2.506 136.693,2.506    137.822,3.132 138.949,3.759 138.949,3.759 140.578,5.012 142.081,6.14 143.209,7.392 143.959,8.645 143.959,8.645 144.336,9.397    144.712,10.274 144.962,11.151 145.088,12.028 145.213,13.03 145.213,14.158 145.088,15.161 144.962,16.288 144.962,16.288    144.712,17.667 144.336,18.919 143.835,20.297 143.209,21.675 142.583,23.054 141.83,24.432 139.951,27.188 139.951,27.188    138.699,29.067 137.195,30.822 135.692,32.576 133.937,34.33 132.058,36.084 130.178,37.712 128.048,39.466 125.918,41.096    123.663,42.849 121.158,44.479 118.651,46.107 116.021,47.737 110.257,50.994 104.118,54.126 104.118,54.126 99.607,56.257    94.971,58.135 90.336,59.889 85.575,61.518 80.813,62.897 75.927,64.15 71.041,65.152 66.029,66.028 66.029,66.028 62.395,66.655    58.762,67.032 55.254,67.282 51.871,67.532 51.871,67.532 49.24,67.532 46.859,67.532 44.854,67.408 43.1,67.157 43.1,67.157    40.845,66.781 38.841,66.155 36.835,65.528 35.082,64.901 35.082,64.901 33.704,64.275 32.325,63.523 31.198,62.771 30.07,62.019    30.07,62.019 28.566,60.641 27.314,59.264 26.312,57.884 25.56,56.38 25.56,56.38 25.309,57.257 25.184,58.135 25.059,59.012    25.059,59.889 25.184,60.641 25.309,61.518 25.56,62.395 25.936,63.273 25.936,63.273 26.562,64.525 27.439,65.653 28.441,66.905    29.694,67.909 29.694,67.909 30.697,68.785 31.824,69.412 31.824,69.412 33.328,70.415 35.082,71.166 35.082,71.166 37.086,71.918    37.086,71.918 39.717,72.668 42.725,73.295 42.725,73.295 44.854,73.545 46.985,73.797 49.24,73.922 51.62,74.048 54.001,74.048    56.506,73.922 61.644,73.545 61.644,73.545 66.781,72.92 72.042,72.042 77.305,70.916 82.693,69.412 82.693,69.412 84.196,69.036    84.196,69.036 90.21,67.157 96.099,64.901 101.988,62.521 107.75,59.764 107.75,59.764 112.512,57.384 117.273,54.753    121.784,51.997 126.294,49.114 126.294,49.114 129.802,46.733 133.06,44.353 136.067,41.973 138.823,39.592 244.821,39.592  " id="svg_5" stroke="#ffffff" stroke-opacity="1" fill-opacity="1"/>
	<path fill="#ffffff" d="M241.938,51.747L241.938,51.747l0.126-0.753l0.125-0.5l0,0l-0.125-0.627l-0.25-0.25l-0.251-0.377l0,0   l-0.376-0.126l-0.501-0.25l-0.502-0.125h-0.627l0,0l-1.002,0.125l-0.501,0.126l-0.375,0.25l0,0l-0.376,0.377l-0.376,0.25   l-0.377,0.877l1.129,0.125l0,0l0.25-0.502l0.375-0.375l0,0l0.627-0.251l0.626-0.124l0,0l0.627,0.124l0.502,0.251l0,0l0.251,0.25   l0.124,0.375l0,0l-0.25,0.753l0,0l-0.627,0.126l-0.877,0.125l0,0l-1.503,0.126l0,0l-0.501,0.124l-0.502,0.25l0,0l-0.376,0.377   l-0.25,0.376l0,0l-0.251,0.376l-0.124,0.626l0,0l0.124,0.375l0.126,0.377l0.125,0.376l0.25,0.25l0,0l0.376,0.251l0.251,0.126   l0.877,0.124l0,0h0.626l0.627-0.25l0,0l0.502-0.251l0.626-0.5l0,0l0.124,0.877h1.129l0,0l-0.125-0.877l0,0v-0.627l0.125-0.626l0,0   v-0.127L241.938,51.747L241.938,51.747z M240.184,52.372l0.502-0.125l0,0l-0.252,0.877l-0.25,0.627l0,0l-0.376,0.5l-0.376,0.377   l0,0l-0.625,0.25h-0.503l0,0h-0.5l-0.501-0.25l0,0l-0.251-0.377v-0.5l0,0v-0.377l0.125-0.25l0,0l0.25-0.25l0.377-0.126l0,0   l0.626-0.124l0.877-0.126l0,0L240.184,52.372L240.184,52.372L240.184,52.372z" id="svg_6" stroke="#ffffff" stroke-opacity="1" fill-opacity="1"/>
	<polygon fill="#ffffff" points="236.3,49.992 236.677,48.99 236.677,48.99 236.3,48.739 235.924,48.739 235.924,48.739    235.423,48.864 234.797,49.114 234.797,49.114 234.296,49.617 233.793,50.242 234.17,48.864 233.168,48.864 231.665,55.63    232.793,55.63 233.418,52.874 233.418,52.874 233.543,52.121 233.793,51.496 234.045,50.869 234.42,50.494 234.42,50.494    234.672,50.242 235.047,49.992 235.297,49.867 235.548,49.867 235.548,49.867 235.924,49.867 236.3,49.992 236.3,49.992  " id="svg_7" stroke="#ffffff" stroke-opacity="1" fill-opacity="1"/>
	<polygon fill="#ffffff" points="167.765,22.929 168.016,21.675 167.014,21.675 165.636,28.441 166.764,28.441 167.39,25.309    167.39,25.309 167.641,24.557 167.765,23.931 168.141,23.555 168.392,23.179 168.392,23.179 168.768,22.804 169.145,22.678    169.52,22.553 170.021,22.427 170.021,22.427 170.397,22.553 170.648,22.678 170.648,22.678 170.898,22.929 170.898,23.179    170.898,23.179 170.772,24.181 169.895,28.441 171.023,28.441 171.9,24.307 171.9,24.307 172.025,23.179 172.025,23.179    171.9,22.553 171.525,21.926 171.525,21.926 171.023,21.675 170.272,21.55 170.272,21.55 169.645,21.675 169.018,21.926    169.018,21.926 168.518,22.302 167.765,22.929 167.765,22.929  " id="svg_8" stroke="#ffffff" stroke-opacity="1" fill-opacity="1"/>
	<polygon fill="#ffffff" points="165.761,19.17 164.508,19.17 162.628,28.441 163.881,28.441 165.761,19.17  " id="svg_9" stroke="#ffffff" stroke-opacity="1" fill-opacity="1"/>
	<path fill="#ffffff" d="M173.279,23.43L173.279,23.43l-0.377,1.002l-0.124,1.127l0,0v0.627l0.124,0.626l0.252,0.501l0.25,0.376l0,0   l0.375,0.375l0.377,0.25l0.501,0.125h0.502l0,0h0.5l0.502-0.25l0.375-0.251l0.502-0.376l-0.125,0.501l0,0l-0.251,1.002l-0.25,0.627   l0,0l-0.251,0.25l-0.375,0.125l-0.377,0.125h-0.5l0,0h-0.503l-0.375-0.125l0,0l-0.252-0.125l-0.124-0.125l0,0v-0.626l-1.128-0.126   l0,0l-0.125,0.376l0,0l0.125,0.501l0.251,0.376l0,0l0,0l0,0l0.251,0.376l0.626,0.25l0,0l0.627,0.126l0.751,0.125l0,0l0.753-0.125   l0.75-0.251l0,0l0.377-0.251l0.25-0.25l0,0l0.376-0.376l0,0l0.25-0.751l0.251-1.002l1.379-6.516h-1.003l-0.25,1.128l0,0   l-0.377-0.502l-0.5-0.501l-0.502-0.125l-0.751-0.125l0,0l-0.752,0.125l-0.752,0.376l0,0l-0.627,0.626L173.279,23.43L173.279,23.43   L173.279,23.43z M174.031,24.432L174.031,24.432l0.251-0.501l0.25-0.501l0,0l0.377-0.501l0.375-0.251l0,0l0.502-0.125l0.375-0.125   l0,0l0.626,0.125l0.502,0.376l0,0l0.25,0.25l0.125,0.376v0.752l0,0v0.751l-0.251,0.877l0,0l-0.375,0.626l-0.502,0.501l0,0   l-0.627,0.376l-0.5,0.125l0,0l-0.5-0.125l-0.377-0.125l0,0l-0.25-0.376l-0.251-0.376l0,0l-0.126-0.501v-0.626l0,0L174.031,24.432   L174.031,24.432L174.031,24.432z" id="svg_10" stroke="#ffffff" stroke-opacity="1" fill-opacity="1"/>
	<path fill="#ffffff" d="M180.169,23.555L180.169,23.555l-0.375,1.127l-0.126,1.002l0,0l0.126,0.877l0.25,0.626l0,0l0.375,0.627   l0.627,0.501l0,0l0.626,0.25h0.753l0,0h0.501l0.5-0.125l0.503-0.25l0.5-0.251l0,0l0.752-0.877l0.375-0.751l-1.127-0.125l0,0   l-0.376,0.626l-0.501,0.501l0,0l-0.626,0.25l-0.501,0.126l0,0l-0.626-0.126l-0.502-0.376l0,0l-0.375-0.626l-0.126-0.877l0.126-0.25   h5.011l0,0v-1.127l0,0V23.68l-0.125-0.501l-0.252-0.501l-0.375-0.376l0,0l-0.375-0.375l-0.377-0.251l-0.5-0.125h-0.627l0,0   l-0.877,0.125l-0.878,0.376l0,0l-0.375,0.25l-0.376,0.376L180.169,23.555L180.169,23.555L180.169,23.555z M181.046,24.432   L181.046,24.432l0.376-0.877l0.501-0.626l0,0l0.626-0.376l0.753-0.125l0,0l0.627,0.125l0.5,0.376l0,0l0.377,0.501v0.751v0.251   H181.046L181.046,24.432z" id="svg_11" stroke="#ffffff" stroke-opacity="1" fill-opacity="1"/>
	<polygon fill="#ffffff" points="188.563,22.929 188.815,21.675 187.813,21.675 186.434,28.441 187.563,28.441 188.188,25.309    188.188,25.309 188.563,24.056 188.815,23.555 189.19,23.179 189.19,23.179 189.567,22.804 189.943,22.678 190.318,22.553    190.82,22.427 190.82,22.427 191.195,22.553 191.447,22.678 191.447,22.678 191.571,22.929 191.697,23.179 191.697,23.179    191.571,24.181 190.57,28.441 191.822,28.441 192.7,24.307 192.7,24.307 192.824,23.179 192.824,23.179 192.7,22.427    192.324,21.926 192.324,21.926 191.822,21.675 191.07,21.55 191.07,21.55 190.444,21.675 189.817,21.926 189.817,21.926    189.19,22.302 188.563,22.929 188.563,22.929  " id="svg_12" stroke="#ffffff" stroke-opacity="1" fill-opacity="1"/>
	<polygon fill="#ffffff" points="196.333,19.17 195.204,19.17 194.954,20.422 196.082,20.422 196.333,19.17  " id="svg_13" stroke="#ffffff" stroke-opacity="1" fill-opacity="1"/>
	<polygon fill="#ffffff" points="195.831,21.675 194.704,21.675 193.326,28.441 194.454,28.441 195.831,21.675  " id="svg_14" stroke="#ffffff" stroke-opacity="1" fill-opacity="1"/>
	<path fill="#ffffff" d="M196.583,23.555L196.583,23.555l-0.376,1.127l-0.126,1.002l0,0l0.126,0.877l0.25,0.626l0,0l0.376,0.627   l0.627,0.501l0,0l0.627,0.25h0.75l0,0h0.502l0.501-0.125l0.501-0.25l0.501-0.251l0,0l0.752-0.877l0.25-0.376l0.127-0.375   l-1.129-0.125l0,0l-0.375,0.626l-0.502,0.501l0,0l-0.626,0.25l-0.502,0.126l0,0l-0.626-0.126l-0.501-0.376l0,0l-0.25-0.626   l-0.126-0.877v-0.25h5.013l0,0v-1.127l0,0V23.68l-0.126-0.501l-0.25-0.501l-0.377-0.376l0,0l-0.376-0.375l-0.376-0.251   l-0.501-0.125h-0.627l0,0l-0.877,0.125l-0.877,0.376l0,0l-0.375,0.25l-0.375,0.376L196.583,23.555L196.583,23.555L196.583,23.555z    M199.714,22.427L199.714,22.427l0.627,0.125l0.501,0.376l0,0l0.376,0.501l0.126,0.751v0.251h-3.884l0,0l0.25-0.501l0.125-0.375   l0.252-0.376l0.375-0.25l0,0l0.627-0.376L199.714,22.427L199.714,22.427L199.714,22.427z" id="svg_15" stroke="#ffffff" stroke-opacity="1" fill-opacity="1"/>
	<polygon fill="#ffffff" points="209.613,20.422 209.865,19.17 208.737,19.17 208.485,20.422 209.613,20.422  " id="svg_16" stroke="#ffffff" stroke-opacity="1" fill-opacity="1"/>
	<polygon fill="#ffffff" points="207.358,22.804 207.859,21.801 207.859,21.801 207.358,21.55 206.982,21.55 206.982,21.55    206.481,21.675 205.98,21.926 205.98,21.926 205.478,22.427 204.978,23.054 205.228,21.675 204.226,21.675 202.847,28.441    203.851,28.441 204.476,25.685 204.476,25.685 204.851,24.307 205.228,23.68 205.478,23.305 205.478,23.305 206.105,22.804    206.481,22.678 206.731,22.678 206.731,22.678 207.108,22.678 207.358,22.804 207.358,22.804  " id="svg_17" stroke="#ffffff" stroke-opacity="1" fill-opacity="1"/>
	<path fill="#ffffff" d="M210.49,24.933L210.49,24.933l-0.375,0.376l-0.25,0.375l0,0l-0.252,0.376l-0.125,0.626l0,0l0.251,0.752   l0.376,0.501l0,0v0.125l0,0l0.25,0.25l0.377,0.125l0.877,0.125l0,0h0.626l0.627-0.25l0,0l0.5-0.25l0.627-0.501l0,0l0.125,0.877   h1.128l0,0l-0.126-0.877l0,0v-0.501l0,0l0.126-0.751l0.376-1.754l0,0l0.125-0.626l0.126-0.626l0,0l-0.251-0.627l-0.376-0.501l0,0   l-0.376-0.25l-0.5-0.251l-0.502-0.125h-0.627l0,0l-1.002,0.125l-0.501,0.125l-0.376,0.25l0,0l-0.376,0.376l-0.377,0.25   l-0.375,0.877l1.128,0.125l0,0l0.251-0.501l0.376-0.375l0,0l0.626-0.251l0.626-0.125l0,0l0.627,0.125l0.502,0.251l0,0l0.25,0.25   l0.125,0.376l0,0l-0.252,0.751l0,0l-0.625,0.126l-0.878,0.125l0,0l-1.504,0.125l0,0l-0.5,0.125L210.49,24.933L210.49,24.933   L210.49,24.933z M210.866,25.936L210.866,25.936l0.251-0.251l0.375-0.125l0,0l0.627-0.125l0.753-0.125l0,0l1.002-0.125l0.502-0.125   l0,0l-0.127,0.877l-0.375,0.626l0,0l-0.125,0.25l-0.25,0.25l0,0l-0.127,0.251l-0.25,0.125l0,0l-0.627,0.251h-0.5l0,0h-0.503   l-0.5-0.251l0,0l-0.25-0.376l0,0v-0.501l0,0v-0.375L210.866,25.936L210.866,25.936L210.866,25.936z" id="svg_18" stroke="#ffffff" stroke-opacity="1" fill-opacity="1"/>
	<polygon fill="#ffffff" points="209.362,21.675 208.235,21.675 206.731,28.441 207.985,28.441 209.362,21.675  " id="svg_19" stroke="#ffffff" stroke-opacity="1" fill-opacity="1"/>
	<polygon fill="#ffffff" points="221.642,22.177 221.642,22.177 221.266,22.427 220.889,22.804 220.389,23.805 220.389,23.805    220.012,24.808 220.012,25.936 220.012,25.936 220.012,26.562 220.137,27.063 220.137,27.063 220.389,27.564 220.639,27.94    220.639,27.94 221.015,28.191 221.391,28.441 221.892,28.566 222.393,28.566 222.393,28.566 222.894,28.566 223.396,28.441    223.771,28.316 224.273,27.94 224.273,27.94 224.649,27.564 225.024,27.063 225.024,27.063 225.4,26.061 224.273,25.936    224.273,25.936 224.023,26.562 223.771,27.063 223.771,27.063 223.521,27.314 223.521,27.314 223.019,27.564 222.393,27.69    222.393,27.69 221.892,27.564 221.516,27.314 221.516,27.314 221.266,27.063 221.266,27.063 221.139,26.562 221.015,25.936    221.015,25.936 221.139,25.184 221.391,24.307 221.391,24.307 221.766,23.43 222.143,22.929 222.143,22.929 222.769,22.553    223.396,22.427 223.396,22.427 223.896,22.553 224.398,22.804 224.398,22.804 224.649,23.305 224.649,23.805 225.901,23.805    225.901,23.805 225.776,23.305 225.65,22.804 225.526,22.427 225.275,22.177 225.275,22.177 224.899,21.926 224.523,21.675    224.023,21.55 223.521,21.55 223.521,21.55 223.019,21.55 222.519,21.675 222.017,21.801 221.642,22.177 221.642,22.177  " id="svg_20" stroke="#ffffff" stroke-opacity="1" fill-opacity="1"/>
	<polygon fill="#ffffff" points="227.405,20.422 228.657,20.422 228.909,19.17 227.78,19.17 227.405,20.422  " id="svg_21" stroke="#ffffff" stroke-opacity="1" fill-opacity="1"/>
	<polygon fill="#ffffff" points="228.282,21.675 227.154,21.675 225.776,28.441 226.903,28.441 228.282,21.675  " id="svg_22" stroke="#ffffff" stroke-opacity="1" fill-opacity="1"/>
	<polygon fill="#ffffff" points="230.663,25.435 230.161,21.675 229.034,21.675 230.161,28.441 231.414,28.441 235.297,21.675    234.045,21.675 231.79,25.685 231.79,25.685 231.164,27.063 231.164,27.063 230.914,27.439 230.914,27.439 230.914,27.063    230.914,27.063 230.663,25.435 230.663,25.435  " id="svg_23" stroke="#ffffff" stroke-opacity="1" fill-opacity="1"/>
	<polygon fill="#ffffff" points="0,19.295 0,22.427 29.193,22.427 29.193,24.056 51.996,24.056 51.996,24.056 52.372,23.931    52.372,23.931 54.126,22.678 54.126,22.678 56.381,21.299 56.381,21.299 59.764,19.295 0,19.295  " id="svg_24" stroke="#ffffff" stroke-opacity="1" fill-opacity="1"/>
	<polygon fill="#ffffff" points="0,11.778 0,14.91 29.193,14.91 29.193,16.664 64.4,16.664 64.4,16.664 67.657,14.91 71.041,13.156    71.041,13.156 73.922,11.778 0,11.778  " id="svg_25" stroke="#ffffff" stroke-opacity="1" fill-opacity="1"/>
	<polygon fill="#ffffff" points="47.736,27.188 47.736,27.188 48.613,26.562 0,26.562 0,29.694 29.193,29.694 29.193,31.323    42.349,31.323 42.349,31.323 44.729,29.443 47.11,27.564 47.11,27.564 47.736,27.188 47.736,27.188  " id="svg_26" stroke="#ffffff" stroke-opacity="1" fill-opacity="1"/>
	<polygon fill="#ffffff" points="34.205,38.84 34.205,38.84 36.209,36.835 38.465,34.706 38.465,34.706 39.216,34.08 0,34.08    0,37.211 29.193,37.211 29.193,38.84 34.205,38.84  " id="svg_27" stroke="#ffffff" stroke-opacity="1" fill-opacity="1"/>
	<polygon fill="#ffffff" points="29.193,44.603 29.193,44.98 29.193,44.98 30.446,43.226 31.824,41.472 0,41.472 0,44.603    29.193,44.603  " id="svg_28" stroke="#ffffff" stroke-opacity="1" fill-opacity="1"/>
	<polygon fill="#ffffff" points="0,48.99 0,52.121 25.56,52.121 25.56,52.121 26.186,50.617 26.813,48.99 0,48.99  " id="svg_29" stroke="#ffffff" stroke-opacity="1" fill-opacity="1"/>
	<polygon fill="#ffffff" points="218.008,46.358 216.629,47.235 216.378,48.864 215.377,48.864 215.251,49.741 216.128,49.741    215.377,53.625 215.377,53.625 215.125,54.753 215.125,54.753 215.251,55.128 215.502,55.378 215.502,55.378 216.002,55.63    216.505,55.754 216.505,55.754 217.382,55.63 217.506,54.753 217.506,54.753 216.88,54.753 216.88,54.753 216.629,54.753    216.505,54.627 216.505,54.627 216.378,54.377 217.255,49.741 218.384,49.741 218.634,48.864 217.506,48.864 218.008,46.358  " id="svg_30" stroke="#ffffff" stroke-opacity="1" fill-opacity="1"/>
	<path fill="#ffffff" d="M207.358,49.992L207.358,49.992l0.501-0.251l0.626-0.124l0,0l0.627,0.124l0.501,0.251l0,0l0.252,0.25   l0.124,0.375l0,0l-0.124,0.377v0.376l0,0l-0.753,0.126l-0.877,0.125l0,0l-1.504,0.126l0,0l-0.5,0.124l-0.502,0.25l0,0l-0.375,0.251   l-0.251,0.502l0,0l-0.252,0.376l-0.123,0.626l0,0l0.123,0.375v0.377l0.252,0.376l0.251,0.25l0,0l0.25,0.251l0.376,0.126   l0.878,0.124l0,0h0.625l0.502-0.25l0,0l0.627-0.251l0.626-0.5l0,0l0.124,0.877h1.128l0,0l-0.125-0.377l0,0v-0.5l0,0V54l0,0   l0.25-0.627l0.251-1.627l0,0l0.126-0.753l0.125-0.5l0,0l-0.125-0.627l-0.502-0.627l0,0h-0.125l0,0l-0.376-0.25l-0.376-0.126   l-1.128-0.125l0,0l-1.002,0.125l-0.501,0.126l-0.376,0.25l0,0l-0.375,0.377l-0.376,0.25l-0.251,0.5l-0.126,0.377l1.128,0.125l0,0   l0.252-0.502L207.358,49.992L207.358,49.992L207.358,49.992z M206.731,52.748L206.731,52.748l0.627-0.124l0.877-0.126l0.877-0.126   l0.501-0.125l0,0l-0.125,0.877l-0.376,0.627l0,0l-0.375,0.5l-0.376,0.377l0,0l-0.626,0.25h-0.502l0,0h-0.502l-0.5-0.25l0,0   l-0.251-0.377v-0.5l0,0V53.5l0.125-0.377l0,0l0.25-0.25L206.731,52.748L206.731,52.748L206.731,52.748z" id="svg_31" stroke="#ffffff" stroke-opacity="1" fill-opacity="1"/>
	<polygon fill="#ffffff" points="218.132,55.63 219.26,55.63 220.764,48.864 219.512,48.864 218.132,55.63  " id="svg_32" stroke="#ffffff" stroke-opacity="1" fill-opacity="1"/>
	<polygon fill="#ffffff" points="230.161,48.864 229.034,48.864 227.656,55.63 228.783,55.63 229.284,52.874 229.284,52.874    229.785,51.496 230.037,50.869 230.287,50.494 230.287,50.494 231.039,49.992 231.29,49.867 231.54,49.867 231.54,49.867    231.916,49.867 232.291,49.992 232.667,48.99 232.667,48.99 232.291,48.739 231.916,48.739 231.916,48.739 231.414,48.864    230.914,49.114 230.914,49.114 230.412,49.617 229.785,50.242 230.161,48.864  " id="svg_33" stroke="#ffffff" stroke-opacity="1" fill-opacity="1"/>
	<path fill="#ffffff" d="M227.154,52.624L227.154,52.624l0.126-1.128l0,0l-0.126-0.627l-0.124-0.502l-0.252-0.5l-0.25-0.377l0,0   l-0.375-0.376l-0.503-0.25l-0.5-0.125h-0.501l0,0l-1.003,0.125l-0.752,0.376l0,0l-0.501,0.25l-0.25,0.377l-0.627,0.877l0,0   l-0.377,1.127l-0.124,1.003l0,0v0.877l0.251,0.627l0,0l0.376,0.626l0.626,0.501l0,0l0.626,0.25h0.752l0,0h0.627l0.5-0.124   l0.502-0.252l0.375-0.375l0,0l0.753-0.753l0.25-0.375l0.125-0.375l-1.128-0.127l0,0L225.275,54l-0.376,0.502l0,0l-0.626,0.251   l-0.627,0.124l0,0l-0.627-0.124l-0.376-0.376l0,0l-0.375-0.627l-0.125-0.877v-0.25H227.154L227.154,52.624z M222.393,51.621   L222.393,51.621l0.376-0.877l0.501-0.627l0,0l0.626-0.376l0.753-0.124l0,0l0.626,0.124l0.501,0.376l0,0l0.125,0.25l0.125,0.25   l0.127,0.753v0.251H222.393L222.393,51.621z" id="svg_34" stroke="#ffffff" stroke-opacity="1" fill-opacity="1"/>
	<polygon fill="#ffffff" points="220.137,46.233 219.762,47.61 221.015,47.61 221.266,46.233 220.137,46.233  " id="svg_35" stroke="#ffffff" stroke-opacity="1" fill-opacity="1"/>
	<path fill="#ffffff" d="M186.936,49.24L186.936,49.24l-0.753,0.627l-0.5,0.877l0,0l-0.377,1.127l-0.125,1.128l0,0v0.627   l0.125,0.625l0.25,0.377l0.252,0.501l0,0l0.375,0.25l0.377,0.252l0.376,0.124h0.5l0,0h0.502l0.502-0.25l0.5-0.376l0.502-0.501   l-0.125,1.003h1.001l1.879-9.397h-1.002l-0.877,3.634l0,0l-0.251-0.502l-0.5-0.375l-0.501-0.251h-0.626l0,0l-0.753,0.125   L186.936,49.24L186.936,49.24L186.936,49.24z M188.563,49.617L188.563,49.617l0.503,0.124l0.501,0.376l0,0l0.376,0.5l0.124,0.753   l0,0l-0.124,0.751l-0.126,0.753l-0.25,0.627L189.19,54l0,0l-0.375,0.377l-0.375,0.25l-0.377,0.25h-0.376l0,0l-0.376-0.124   l-0.375-0.126l0,0l-0.251-0.377l-0.251-0.375l0,0l-0.125-0.375v-0.753l0,0v-0.501l0.251-0.626l0,0l0.5-1.127l0,0l0.376-0.377   l0.377-0.25l0,0l0.375-0.126L188.563,49.617L188.563,49.617L188.563,49.617z" id="svg_36" stroke="#ffffff" stroke-opacity="1" fill-opacity="1"/>
	<polygon fill="#ffffff" points="177.539,50.494 177.539,50.494 177.664,50.117 177.916,49.867 177.916,49.867 178.291,49.741    178.792,49.617 178.792,49.617 179.418,49.741 179.919,49.992 179.919,49.992 180.295,50.367 180.419,50.994 181.547,50.869    181.547,50.869 181.422,50.367 181.297,49.992 181.172,49.617 180.796,49.24 180.796,49.24 180.419,49.114 180.044,48.864    179.542,48.739 178.917,48.739 178.917,48.739 178.291,48.739 177.916,48.864 177.413,49.114 177.163,49.24 177.163,49.24    176.787,49.617 176.662,49.867 176.536,50.242 176.536,50.617 176.536,50.617 176.536,51.12 176.662,51.496 176.662,51.496    176.913,51.871 177.289,52.121 177.289,52.121 178.541,52.624 178.541,52.624 179.292,52.999 179.668,53.25 179.668,53.25    179.794,53.625 179.919,53.875 179.919,53.875 179.794,54.25 179.542,54.627 179.542,54.627 179.042,54.877 178.291,54.877    178.291,54.877 177.789,54.877 177.413,54.753 177.413,54.753 177.038,54.502 176.787,54.126 176.787,54.126 176.662,53.25    175.534,53.374 175.534,53.374 175.534,53.875 175.659,54.502 175.909,54.877 176.286,55.253 176.286,55.253 176.787,55.504    177.163,55.63 177.789,55.754 178.291,55.754 178.291,55.754 179.042,55.754 179.794,55.504 179.794,55.504 180.295,55.128    180.796,54.753 180.796,54.753 180.922,54.25 181.046,53.75 181.046,53.75 180.922,52.999 180.67,52.748 180.419,52.498    180.419,52.498 179.919,51.997 178.792,51.496 178.792,51.496 177.789,50.994 177.789,50.994 177.664,50.744 177.539,50.494    177.539,50.494  " id="svg_37" stroke="#ffffff" stroke-opacity="1" fill-opacity="1"/>
	<path fill="#ffffff" d="M198.211,52.624L198.211,52.624l0.126-1.128l0,0v-0.627l-0.126-0.502l-0.251-0.5l-0.375-0.377l0,0   l-0.375-0.376l-0.377-0.25l-0.501-0.125h-0.626l0,0l-1.003,0.125l-0.752,0.376l0,0l-0.375,0.25l-0.377,0.377l-0.626,0.877l0,0   l-0.377,1.127l-0.124,1.003l0,0l0.124,0.877l0.252,0.627l0,0l0.375,0.626l0.502,0.501l0,0l0.751,0.25h0.627l0,0h0.627l0.5-0.124   l0.502-0.252l0.501-0.375l0,0l0.752-0.753l0.375-0.75l-1.127-0.127l0,0L196.458,54l-0.501,0.502l0,0l-0.626,0.251l-0.627,0.124l0,0   l-0.5-0.124l-0.503-0.376l0,0l-0.375-0.627l-0.126-0.877l0.126-0.25H198.211L198.211,52.624z M194.328,50.117L194.328,50.117   l0.626-0.376l0.753-0.124l0,0l0.626,0.124l0.501,0.376l0,0l0.377,0.5v0.753v0.251h-3.76l0,0l0.376-0.877L194.328,50.117   L194.328,50.117L194.328,50.117z" id="svg_38" stroke="#ffffff" stroke-opacity="1" fill-opacity="1"/>
	<polygon fill="#ffffff" points="201.971,55.63 203.098,55.63 205.103,46.233 203.975,46.233 201.971,55.63  " id="svg_39" stroke="#ffffff" stroke-opacity="1" fill-opacity="1"/>
	<polygon fill="#ffffff" points="156.239,48.99 156.239,48.99 155.614,49.49 154.987,50.117 155.237,48.864 154.234,48.864    152.73,55.63 153.859,55.63 154.61,52.498 154.61,52.498 154.987,51.244 155.237,50.744 155.614,50.367 155.614,50.367    156.364,49.867 156.741,49.741 157.117,49.617 157.117,49.617 157.618,49.741 157.868,49.867 157.868,49.867 157.994,50.117    158.118,50.367 158.118,50.367 157.994,50.869 157.994,51.37 156.991,55.63 158.244,55.63 159.121,51.496 159.121,51.496    159.246,50.367 159.246,50.367 159.121,49.741 158.745,49.114 158.745,49.114 158.244,48.864 157.492,48.739 157.492,48.739    156.866,48.864 156.239,48.99 156.239,48.99  " id="svg_40" stroke="#ffffff" stroke-opacity="1" fill-opacity="1"/>
	<path fill="#ffffff" d="M149.723,48.739L149.723,48.739l-1.002,0.125l-0.751,0.376l0,0l-0.752,0.627l-0.376,0.375l-0.251,0.502l0,0   l-0.375,1.127l-0.126,1.003l0,0l0.126,0.877l0.25,0.627l0,0l0.376,0.626l0.501,0.501l0,0l0.752,0.25h0.626l0,0h0.627l0.502-0.124   l0.5-0.252l0.502-0.375l0,0l0.625-0.753l0.251-0.375l0.252-0.375l-1.128-0.127l0,0L150.476,54l-0.503,0.502l0,0l-0.625,0.251   l-0.627,0.124l0,0l-0.501-0.124l-0.25-0.126l-0.251-0.25l0,0l-0.25-0.251l-0.126-0.376l-0.125-0.877v-0.25h5.012l0,0l0.125-1.128   l0,0v-0.627l-0.125-0.502l-0.25-0.5l-0.377-0.377l0,0l-0.376-0.376l-0.375-0.25l-0.627-0.125H149.723L149.723,48.739   L149.723,48.739z M148.346,50.117L148.346,50.117l0.627-0.376l0.75-0.124l0,0l0.627,0.124l0.502,0.376l0,0l0.25,0.5l0.125,0.753   v0.251h-3.758l0,0l0.375-0.877L148.346,50.117L148.346,50.117L148.346,50.117z" id="svg_41" stroke="#ffffff" stroke-opacity="1" fill-opacity="1"/>
	<polygon fill="#ffffff" points="159.998,53.124 159.998,53.124 159.998,53.75 160.124,54.25 160.374,54.753 160.75,55.128    160.75,55.128 161.125,55.378 161.501,55.63 162.002,55.754 162.504,55.754 162.504,55.754 163.004,55.754 163.381,55.63    163.881,55.504 164.257,55.128 164.257,55.128 164.634,54.877 165.009,54.377 165.261,53.875 165.511,53.25 164.383,53.124    164.383,53.124 164.007,53.875 163.506,54.502 163.506,54.502 163.004,54.753 162.504,54.877 162.504,54.877 162.002,54.753    161.501,54.502 161.501,54.502 161.25,53.875 161.125,53.124 161.125,53.124 161.25,52.247 161.501,51.496 161.501,51.496    161.751,50.617 162.252,50.117 162.252,50.117 162.879,49.741 163.506,49.617 163.506,49.617 164.007,49.741 164.383,49.992    164.383,49.992 164.758,50.494 164.758,50.994 165.886,50.994 165.886,50.994 165.886,50.494 165.761,49.992 165.636,49.617    165.261,49.365 165.261,49.365 165.009,49.114 164.508,48.864 164.131,48.739 163.506,48.739 163.506,48.739 163.004,48.739    162.628,48.864 162.127,48.99 161.751,49.24 161.751,49.24 161.375,49.617 161,49.992 160.5,50.994 160.5,50.994 160.124,51.997    159.998,53.124 159.998,53.124  " id="svg_42" stroke="#ffffff" stroke-opacity="1" fill-opacity="1"/>
	<polygon fill="#ffffff" points="168.643,47.61 168.893,46.233 167.891,46.233 167.515,47.61 168.643,47.61  " id="svg_43" stroke="#ffffff" stroke-opacity="1" fill-opacity="1"/>
	<path fill="#ffffff" d="M169.268,50.744l1.129,0.125l0,0l0.375-0.502l0.377-0.375l0,0l0.501-0.251l0.626-0.124l0,0l0.753,0.124   l0.5,0.251l0,0l0.126,0.25l0.124,0.375l0,0l-0.124,0.753l0,0l-0.626,0.126l-0.877,0.125l0,0l-1.504,0.126l0,0l-0.627,0.124   l-0.501,0.25l0,0l-0.375,0.377l-0.252,0.376l0,0l-0.25,0.376v0.626l0,0v0.375l0.125,0.377l0.125,0.376l0.252,0.25l0,0l0.375,0.251   l0.375,0.126l0.753,0.124l0,0h0.627l0.625-0.25l0,0l0.502-0.251l0.627-0.5l0,0l0.125,0.877h1.252l0,0l-0.25-0.877l0,0l0.126-0.503   l0.124-0.877l0.376-1.627l0,0l0.127-0.753v-0.5l0,0v-0.377l-0.127-0.25l-0.376-0.627l0,0l-0.501-0.126l-0.376-0.25l-0.5-0.125   h-0.627l0,0l-1.127,0.125l-0.503,0.126l-0.375,0.25l0,0l-0.376,0.377l-0.25,0.25L169.268,50.744L169.268,50.744L169.268,50.744z    M172.902,52.372l0.627-0.125l0,0l-0.25,0.877l-0.25,0.627l0,0l-0.377,0.5l-0.5,0.377l0,0l-0.502,0.25h-0.627l0,0h-0.501   l-0.375-0.25l0,0l-0.252-0.377l-0.124-0.5l0,0l0.124-0.25l0.126-0.377l0,0l0.251-0.25l0.376-0.126l0,0l0.501-0.124l0.876-0.126   L172.902,52.372L172.902,52.372z" id="svg_44" stroke="#ffffff" stroke-opacity="1" fill-opacity="1"/>
	<polygon fill="#ffffff" points="165.886,55.63 167.014,55.63 168.392,48.864 167.265,48.864 165.886,55.63  " id="svg_45" stroke="#ffffff" stroke-opacity="1" fill-opacity="1"/>
	<polygon fill="#ffffff" points="129.426,48.864 128.298,48.864 129.426,55.63 129.051,56.38 129.051,56.38 128.8,56.757    128.424,57.133 128.424,57.133 128.298,57.257 127.923,57.257 127.923,57.257 127.296,57.133 127.171,58.261 127.171,58.261    127.547,58.386 127.923,58.386 127.923,58.386 128.549,58.261 129.051,58.01 129.051,58.01 129.551,57.509 130.178,56.507    134.439,48.864 133.31,48.864 130.303,54.377 129.426,48.864  " id="svg_46" stroke="#ffffff" stroke-opacity="1" fill-opacity="1"/>
	<polygon fill="#ffffff" points="144.836,47.61 146.09,47.61 146.34,46.233 145.213,46.233 144.836,47.61  " id="svg_47" stroke="#ffffff" stroke-opacity="1" fill-opacity="1"/>
	<polygon fill="#ffffff" points="140.953,48.739 140.953,48.739 139.951,48.864 139.45,48.99 139.074,49.24 139.074,49.24    138.699,49.617 138.323,49.992 137.822,50.994 137.822,50.994 137.446,51.997 137.446,53.124 137.446,53.124 137.446,53.75    137.571,54.25 137.822,54.753 138.072,55.128 138.072,55.128 138.448,55.378 138.823,55.63 139.326,55.754 139.826,55.754    139.826,55.754 140.326,55.754 140.829,55.63 141.205,55.504 141.706,55.128 141.706,55.128 142.081,54.877 142.333,54.377    142.708,53.875 142.833,53.25 141.83,53.124 141.83,53.124 141.455,54 140.953,54.502 140.953,54.502 140.453,54.753    139.826,54.877 139.826,54.877 139.326,54.753 138.949,54.502 138.949,54.502 138.699,53.875 138.573,53.124 138.573,53.124    138.573,52.247 138.823,51.496 138.823,51.496 139.199,50.617 139.576,50.117 139.576,50.117 140.203,49.741 140.829,49.617    140.829,49.617 141.33,49.741 141.83,49.992 141.83,49.992 142.081,50.494 142.206,50.994 143.333,50.994 143.333,50.994    143.333,50.494 143.209,49.992 142.958,49.617 142.708,49.365 142.708,49.365 142.333,49.114 141.956,48.864 141.455,48.739    140.953,48.739 140.953,48.739  " id="svg_48" stroke="#ffffff" stroke-opacity="1" fill-opacity="1"/>
	<polygon fill="#ffffff" points="145.839,48.864 144.712,48.864 143.209,55.63 144.336,55.63 145.839,48.864  " id="svg_49" stroke="#ffffff" stroke-opacity="1" fill-opacity="1"/>
	<polyline fill="#ffffff" stroke="#ffffff" stroke-linecap="square" stroke-miterlimit="10" points="88.832,23.179 72.042,23.179    67.156,46.61 84.948,46.61 85.575,43.978 70.79,43.978 72.544,35.834 85.95,35.834 86.451,33.203 73.045,33.203 74.549,25.936    88.331,25.936 88.832,23.179  " id="svg_50" stroke-opacity="1" fill-opacity="1"/>
	<polyline fill="#ffffff" stroke="#ffffff" stroke-linecap="square" stroke-miterlimit="10" points="91.713,23.179 86.827,46.61    89.96,46.61 94.846,23.179 91.713,23.179  " id="svg_51" stroke-opacity="1" fill-opacity="1"/>
	<polyline fill="#ffffff" stroke="#ffffff" stroke-linecap="square" stroke-miterlimit="10" points="52.498,24.432 52.498,24.432    51.37,25.309 50.242,26.312 50.242,26.312 49.616,26.938 48.864,27.815 48.362,28.692 47.736,29.569 47.736,29.569 47.736,29.819    47.736,29.819 47.11,30.947 47.11,30.947 46.609,32.451 46.233,33.955 45.982,35.583 45.982,37.211 45.982,37.211 45.982,38.715    46.233,40.093 46.609,41.346 47.11,42.599 47.11,42.599 47.736,43.476 47.736,43.476 48.112,43.853 48.112,43.853 49.114,44.98    49.616,45.356 50.242,45.732 50.242,45.732 51.37,46.233 52.748,46.733 54.126,46.86 55.629,46.985 55.629,46.985 56.882,46.985    58.136,46.733 59.263,46.61 60.516,46.233 60.516,46.233 62.897,45.356 63.899,44.855 64.901,44.228 66.906,34.706 56.757,34.706    56.13,37.337 63.272,37.337 62.145,42.473 62.145,42.473 60.516,43.226 58.762,43.853 57.258,44.228 55.629,44.353 55.629,44.353    54.251,44.353 52.874,43.978 51.746,43.351 50.869,42.599 50.869,42.599 50.242,41.847 50.242,41.847 49.741,40.969 49.365,39.842    49.24,38.589 49.114,37.337 49.114,37.337 49.24,35.708 49.365,34.205 49.741,32.701 50.242,31.323 50.242,31.323 50.493,30.947    50.493,30.947 51.119,29.694 51.996,28.566 52.874,27.564 53.875,26.813 53.875,26.813 55.003,26.187 56.256,25.811 57.384,25.56    58.637,25.435 58.637,25.435 59.889,25.435 60.892,25.685 61.769,26.187 62.646,26.687 62.646,26.687 63.398,27.439 63.899,28.316    64.4,29.318 64.776,30.446 67.783,30.07 67.783,30.07 67.532,28.942 67.156,27.94 66.781,26.938 66.28,26.187 66.28,26.187    65.778,25.435 65.152,24.933 64.4,24.432 63.648,23.931 63.648,23.931 63.272,23.805 63.272,23.805 62.145,23.305 61.143,23.054    60.015,22.929 58.762,22.804 58.762,22.804 57.384,22.929 56.13,23.054 54.753,23.43 53.625,23.931 53.625,23.931 52.498,24.432     " id="svg_52" stroke-opacity="1" fill-opacity="1"/>
	<polyline fill="#ffffff" stroke="#ffffff" stroke-linecap="square" stroke-miterlimit="10" points="106.749,22.804 106.749,22.804    105.371,22.929 104.118,23.054 102.99,23.43 101.737,23.931 101.737,23.931 100.86,24.432 99.983,25.059 99.231,25.685    98.354,26.562 98.354,26.562 97.728,27.314 97.102,28.191 96.475,29.067 95.974,29.945 95.598,30.947 95.222,31.949 94.971,32.952    94.846,34.08 94.846,34.08 94.595,35.458 94.595,36.961 94.595,36.961 94.595,38.339 94.846,39.592 94.846,39.592 95.096,40.969    95.598,42.223 96.224,43.351 97.102,44.353 97.102,44.353 97.728,44.98 98.479,45.481 99.231,45.983 99.983,46.358 100.86,46.61    101.862,46.86 102.739,46.985 103.867,46.985 103.867,46.985 104.87,46.985 105.872,46.733 106.874,46.61 107.876,46.233    107.876,46.233 109.004,45.606 110.132,44.855 110.132,44.855 110.883,44.353 111.51,43.726 111.51,43.726 112.387,42.724    113.139,41.472 113.765,40.219 114.391,38.84 111.259,38.339 111.259,38.339 110.758,39.717 110.132,40.969 109.38,41.973    108.377,42.849 108.377,42.849 107.876,43.226 107.876,43.226 106.999,43.726 106.122,44.103 105.12,44.353 104.118,44.353    104.118,44.353 102.739,44.228 101.487,43.978 100.359,43.351 99.481,42.473 99.481,42.473 99.106,41.973 98.73,41.472    98.103,40.219 97.853,38.715 97.728,36.961 97.728,36.961 97.853,34.831 97.978,33.829 98.229,32.826 98.605,31.824 98.98,30.947    99.481,30.07 99.983,29.193 99.983,29.193 100.609,28.316 101.361,27.564 102.238,26.938 102.99,26.312 103.867,25.936    104.87,25.685 105.872,25.435 106.874,25.435 106.874,25.435 107.876,25.435 107.876,25.435 108.628,25.685 109.38,25.811    110.006,26.187 110.632,26.687 110.632,26.687 111.134,27.063 111.51,27.564 111.51,27.564 111.886,28.191 112.136,28.942    112.512,30.446 115.519,30.195 115.519,30.195 115.143,28.566 114.642,27.188 114.266,26.562 113.765,25.936 113.389,25.309    112.763,24.808 112.763,24.808 112.136,24.307 111.51,23.931 111.51,23.931 110.382,23.43 109.38,23.054 108.127,22.929    106.749,22.804  " id="svg_53" stroke-opacity="1" fill-opacity="1"/>
	<path fill="#ffffff" d="M14.785,55.754L14.785,55.754l1.252,0.126l1.002,0.377l1.003,0.5l0.876,0.752l0.752,0.877l0.501,1.002   l0.376,1.128l0.125,1.252l0,0l-0.125,1.253l-0.376,1.129l-0.501,1.002l-0.752,0.876l-0.876,0.753l-1.003,0.501l-1.127,0.376   l-1.127,0.125l0,0l-1.253-0.125l-1.127-0.376l-1.002-0.501l-0.877-0.753l-0.626-0.876L9.271,64.15l-0.376-1.129v-1.253l0,0v-1.252   l0.376-1.128l0.627-1.002l0.626-0.877l0.877-0.752l1.002-0.5l1.127-0.377L14.785,55.754L14.785,55.754L14.785,55.754z    M14.785,56.757L14.785,56.757h-1.002l-0.877,0.376l-0.752,0.376l-0.751,0.626l-0.627,0.752l-0.375,0.877l-0.376,1.003v1.001l0,0   v1.003l0.376,1.003l0.375,0.877l0.627,0.751l0.751,0.626l0.752,0.377l0.877,0.376h1.002l0,0h1.002l0.877-0.376l0.751-0.377   l0.752-0.626l0.626-0.751l0.376-0.877l0.25-1.003l0.126-1.003l0,0l-0.126-1.001l-0.25-1.003l-0.376-0.877l-0.626-0.752   l-0.752-0.626l-0.751-0.376l-0.877-0.376H14.785L14.785,56.757L14.785,56.757z M13.657,65.278h-1.127v-6.767l0,0h0.877l1.002-0.125   l0,0h0.752l0.626,0.125l0.376,0.25l0.375,0.126l0,0l0.25,0.25l0.25,0.377l0.125,0.375v0.375l0,0l-0.125,0.627l-0.25,0.503   l-0.376,0.25l-0.501,0.25v0.125l0,0l0.376,0.125l0.25,0.251l0.25,0.502l0.125,0.751l0,0l0.25,1.128l0.25,0.502h-1.127l0,0   l-0.251-0.627l-0.25-1.128l0,0l-0.126-0.502l-0.25-0.375l-0.501-0.251h-0.501h-0.752V65.278L13.657,65.278z M13.657,61.518h0.752   l0,0h0.626l0.501-0.25l0.376-0.377l0.125-0.5l0,0l-0.125-0.377l-0.251-0.375l-0.5-0.251l-0.752-0.124l0,0h-0.752V61.518   L13.657,61.518z" id="svg_54" stroke="#ffffff" stroke-opacity="1" fill-opacity="1"/>
</g></g></svg>