<?xml version="1.0" encoding="utf-8"?>
<!-- Generator: Adobe Illustrator 16.0.0, SVG Export Plug-In . SVG Version: 6.00 Build 0)  -->
<!DOCTYPE svg PUBLIC "-//W3C//DTD SVG 1.1//EN" "http://www.w3.org/Graphics/SVG/1.1/DTD/svg11.dtd">
<svg version="1.1" id="Layer_1" xmlns="http://www.w3.org/2000/svg" xmlns:xlink="http://www.w3.org/1999/xlink" x="0px" y="0px"
	 width="247.651px" height="194.457px" viewBox="0 0 247.651 194.457" enable-background="new 0 0 247.651 194.457"
	 xml:space="preserve">
<path fill="#1C3F94" d="M31.114,192.191c-2.192,0.83-6.571,2.043-11.682,2.043c-5.728,0-10.445-1.436-14.152-4.917
	C2.022,186.222,0,181.246,0,175.443c0-11.109,7.807-19.236,20.499-19.236c4.381,0,7.863,0.939,9.492,1.716l-1.236,3.925
	c-2.021-0.941-4.55-1.604-8.368-1.604c-9.211,0-15.219,5.635-15.219,14.98c0,9.449,5.728,15.031,14.601,15.031
	c3.202,0,5.391-0.443,6.515-0.994v-11.109h-7.638v-3.869h12.468V192.191z"/>
<path fill="#1C3F94" d="M41.387,181.358c0.113,6.575,4.324,9.284,9.323,9.284c3.539,0,5.728-0.607,7.525-1.381l0.898,3.482
	c-1.741,0.773-4.773,1.713-9.098,1.713c-8.367,0-13.366-5.473-13.366-13.543c0-8.068,4.831-14.369,12.75-14.369
	c8.928,0,11.232,7.627,11.232,12.549c0,0.991-0.057,1.711-0.168,2.265H41.387z M55.878,177.875c0.055-3.041-1.294-7.849-6.854-7.849
	c-5.054,0-7.188,4.476-7.581,7.849H55.878z"/>
<path fill="#1C3F94" d="M91.369,180.25c0,9.894-7.021,14.206-13.535,14.206c-7.302,0-13.031-5.305-13.031-13.764
	c0-8.898,6.009-14.148,13.479-14.148C86.09,166.544,91.369,172.126,91.369,180.25z M69.859,180.527
	c0,5.861,3.37,10.282,8.199,10.282c4.718,0,8.255-4.366,8.255-10.393c0-4.532-2.303-10.225-8.144-10.225
	C72.386,170.192,69.859,175.498,69.859,180.527z"/>
<path fill="#1C3F94" d="M97.6,174.337c0-2.819-0.113-5.03-0.226-7.24h4.326l0.224,4.365h0.169c1.515-2.541,4.043-4.918,8.592-4.918
	c3.65,0,6.459,2.211,7.639,5.361h0.113c0.842-1.548,1.965-2.654,3.087-3.482c1.629-1.219,3.37-1.879,5.953-1.879
	c3.649,0,8.985,2.321,8.985,11.607v15.697h-4.83v-15.088c0-5.198-1.965-8.238-5.896-8.238c-2.863,0-4.998,2.046-5.897,4.365
	c-0.222,0.721-0.392,1.549-0.392,2.434v16.527h-4.83V177.82c0-4.257-1.909-7.297-5.672-7.297c-3.032,0-5.336,2.431-6.121,4.864
	c-0.28,0.663-0.393,1.548-0.393,2.377v16.085H97.6V174.337z"/>
<path fill="#1C3F94" d="M163.53,187.435c0,2.322,0.111,4.588,0.393,6.414h-4.438l-0.392-3.373h-0.17
	c-1.516,2.102-4.434,3.98-8.311,3.98c-5.504,0-8.312-3.814-8.312-7.685c0-6.466,5.84-10.003,16.343-9.948v-0.555
	c0-2.152-0.619-6.188-6.18-6.134c-2.582,0-5.221,0.72-7.131,1.991l-1.124-3.261c2.249-1.384,5.561-2.321,8.987-2.321
	c8.312,0,10.334,5.582,10.334,10.888V187.435z M158.755,180.195c-5.393-0.11-11.513,0.83-11.513,6.027
	c0,3.205,2.133,4.643,4.604,4.643c3.596,0,5.896-2.213,6.685-4.477c0.169-0.555,0.225-1.108,0.225-1.55V180.195z M161.226,155.544
	l-6.851,7.904h-3.48l4.883-7.904H161.226z"/>
<path fill="#1C3F94" d="M177.23,160.684v6.413h7.075v3.703h-7.075v14.424c0,3.317,0.954,5.197,3.707,5.197
	c1.348,0,2.133-0.111,2.862-0.332l0.227,3.704c-0.956,0.331-2.473,0.663-4.381,0.663c-2.303,0-4.156-0.775-5.336-2.045
	c-1.35-1.492-1.911-3.87-1.911-7.021V170.8h-4.21v-3.703h4.21v-4.977L177.23,160.684z"/>
<path fill="#1C3F94" d="M195.368,159.58c0,1.656-1.182,2.983-3.146,2.983c-1.796,0-2.975-1.327-2.975-2.983
	c0-1.657,1.233-3.041,3.086-3.041C194.131,156.539,195.368,157.867,195.368,159.58z M189.864,193.849v-26.752h4.943v26.752H189.864z
	"/>
<path fill="#1C3F94" d="M222.381,192.91c-1.293,0.607-4.156,1.547-7.809,1.547c-8.198,0-13.533-5.473-13.533-13.652
	c0-8.235,5.729-14.26,14.602-14.26c2.922,0,5.504,0.719,6.852,1.437l-1.124,3.703c-1.177-0.608-3.031-1.271-5.728-1.271
	c-6.233,0-9.602,4.586-9.602,10.113c0,6.191,4.041,10.004,9.434,10.004c2.809,0,4.662-0.663,6.064-1.27L222.381,192.91z"/>
<path fill="#1C3F94" d="M247.259,187.435c0,2.322,0.11,4.588,0.392,6.414h-4.438l-0.393-3.373h-0.169
	c-1.517,2.102-4.435,3.98-8.312,3.98c-5.504,0-8.311-3.814-8.311-7.685c0-6.466,5.838-10.003,16.342-9.948v-0.555
	c0-2.152-0.617-6.188-6.178-6.134c-2.584,0-5.223,0.72-7.132,1.991l-1.123-3.261c2.246-1.384,5.56-2.321,8.985-2.321
	c8.313,0,10.335,5.582,10.335,10.888V187.435z M242.485,180.195c-5.391-0.11-11.514,0.83-11.514,6.027
	c0,3.205,2.135,4.643,4.605,4.643c3.594,0,5.896-2.213,6.684-4.477c0.168-0.555,0.225-1.108,0.225-1.55V180.195z"/>
<g>
	<path fill="#1C3F94" d="M131.26,64.08c-1.001-1.222-2.223-1.444-4.889-0.444c-2.968,1.112-8.559,7.815-6.849,11.064
		c1.706,3.245,3.904,5.337,7.437,4.63c3.518-0.707,1.682-5.019,2.983-6.147c1.296-1.129,2.106,2.23,2.981,3.671
		c3.443,5.664,2.666-0.086,4.356-0.086c1.213,0,2.771,4.793,4.454,4.862c1.689,0.066,6.768-1.444,6.768-4.809
		c0-1.045,0.86-7.331,9.535-8.714c0.273,8.129-2.521,15.487-5.797,20.169c0.787-2.787-0.889-4.087-1.768-4.758
		c-2.28-1.741-3.127-2.842-4.331-1.332c-2.032,2.546-7.774,1.665-8.997-0.778c-0.691-1.384-5.863,4.523-8.784,1.027
		c-2.833-3.39-9.521,5.082-11.208,3.054c-2.06-2.477-5.221-5.26-6.47-6.157c-2.782-2-5.479-3.561-6.835-2.353
		c-1.356,1.208,7.807,3.874,6.835,6.096c-0.619,1.414-6.659-2.103-8.636-3.777c-1.971-1.672-3.443-8.108-8.664-1.777
		c-1.457,1.768-1.672-3.442-1.987-6.886c-0.208-3.239,0.466-5.978,1.298-9.31c1.723-7.114,4.828-12.711,10.472-17.247
		c2.88,0.329,9.202,0.833,9.202-2.686c0-0.552-0.467-1.152-1.534-1.24c-0.071-0.006-0.2-0.665-0.274-0.84
		c2.788-1.425,8.463-3.143,13.447-3.143c0.185,0-1.189,13.14,1.255,14.029c5.315,1.932,1.353,8,3.171,9.401
		c0.892,0.689,3.084,1.442,4.229,2.549L131.26,64.08z M165.194,44.983c-8.832-14.916-24.74-23.264-41.083-23.264
		c-10.91,0-20.727,3.799-26.659,8.1l-0.006,4.361c0,2.087-0.043-0.267,3.765-2.543c7.008-4.188,15.001-6.365,22.9-6.365
		c4.886,0,12.066,1.248,15.365,2.735l-4.206,9.846c-2.529-2.839-8.548-4.095-12.241-4.095c-18.072,0-34.94,16.745-34.94,34.339
		c0,25.919,19.998,37.769,36.063,37.769c12.339,0,21.565-5.885,28.55-14.031c6.951-8.105,9.486-21.757,5.887-33.089l-2.829,1.653
		l-0.618,0.368l-19.956,12.316l-4.28-6.6l2.116-1.289l1.554-0.945l27.457-17.626c5.445,9.179,6.24,16.906,6.107,21.676l3.738-2.167
		C171.5,58.875,169.145,51.66,165.194,44.983z"/>
	<path fill="#1C3F94" d="M156.873,99.246c-6.524,7.454-18.157,14.703-32.762,14.703c-19.718,0-52.058-18.178-42.188-58.003
		l-2.588-3.344c-2.351,6.135-3.115,12.324-3.115,18.822c0,24.185,21.688,46.079,47.494,46.079c20.761,0,32.66-11.868,37.368-17.486
		C160.563,99.938,157.633,99.416,156.873,99.246z"/>
</g>
<g>
	<path fill="#5E9732" d="M241.833,69.623C222.493,29.369,179.395,0,126.897,0c-36.78,0-85.184,18.494-91.289,54.465
		c-0.58,3.413,1.37,6.159,4.554,7.057c4.215,1.19,6.81-1.023,8.634-5.865C59.282,27.811,95.824,12.77,128.342,12.77
		c47.146,0,81.501,24.199,108.946,56.743c3.464,4.107,5.032,5.778,5.925,5.002C243.86,73.952,243.061,72.18,241.833,69.623z"/>
	<path fill="#5E9732" d="M6.222,70.986c19.339,40.253,60.804,70.437,113.3,70.437c36.781,0,86.628-18.751,92.732-54.721
		c0.58-3.412-1.369-6.157-4.554-7.056c-4.216-1.19-6.81,1.023-8.633,5.865c-10.486,27.846-47.027,42.273-79.545,42.273
		c-47.146,0-81.312-24.144-108.757-56.688c-3.464-4.108-5.033-5.779-5.925-5.003C4.194,66.657,4.993,68.429,6.222,70.986z"/>
</g>
</svg>
