<svg height="512pt" viewBox="0 -92 512 512" width="512pt" xmlns="http://www.w3.org/2000/svg"><path d="m496.761719 0h-481.523438c-8.414062 0-15.238281 6.824219-15.238281 15.238281v296.675781c0 8.417969 6.824219 15.242188 15.238281 15.242188h481.523438c8.414062 0 15.238281-6.824219 15.238281-15.242188v-296.675781c0-8.414062-6.824219-15.238281-15.238281-15.238281zm-466.28125 47.625 140.1875 115.953125-140.1875 115.953125zm225.519531 146.976562-198.425781-164.121093h396.851562zm-61.421875-11.246093 51.707031 42.769531c2.820313 2.328125 6.265625 3.496094 9.714844 3.496094s6.894531-1.167969 9.714844-3.496094l51.707031-42.769531 137.003906 113.320312h-396.851562zm146.753906-19.777344 140.1875-115.953125v231.90625zm0 0"/></svg>