<svg height="512pt" viewBox="0 -110 512.00063 512" width="512pt" xmlns="http://www.w3.org/2000/svg"><path d="m508.550781 136.9375c-1.148437-1.390625-28.625-34.40625-73.15625-67.738281-26.285156-19.671875-53.105469-35.378907-79.722656-46.679688-24.082031-10.222656-48.054687-16.828125-71.574219-19.789062-9.097656-1.785157-18.488281-2.730469-28.097656-2.730469s-19 .945312-28.09375 2.730469c-23.523438 2.960937-47.492188 9.566406-71.574219 19.789062-26.621093 11.300781-53.441406 27.007813-79.726562 46.679688-44.53125 33.332031-72.007813 66.347656-73.15625 67.738281-4.597657 5.5625-4.597657 13.609375 0 19.175781 1.148437 1.390625 28.625 34.40625 73.15625 67.734375 26.285156 19.675782 53.105469 35.378906 79.726562 46.679688 33.75 14.332031 67.28125 21.597656 99.667969 21.597656s65.921875-7.265625 99.671875-21.597656c26.617187-11.300782 53.441406-27.003906 79.722656-46.679688 44.53125-33.328125 72.007813-66.34375 73.15625-67.734375 4.597657-5.566406 4.597657-13.613281 0-19.175781zm-137.058593 8.660156c0 63.683594-51.808594 115.492188-115.492188 115.492188s-115.492188-51.808594-115.492188-115.492188c0-57.695312 42.527344-105.644531 97.882813-114.148437 5.816406-.546875 11.6875-.839844 17.609375-.839844 5.925781 0 11.796875.292969 17.609375.839844 55.355469 8.503906 97.882813 56.453125 97.882813 114.148437zm-336.25.925782c11.019531-11.804688 32.089843-32.84375 59.976562-53.648438 10.949219-8.164062 23.648438-16.820312 37.714844-24.996094-14.261719 22.503906-22.535156 49.164063-22.535156 77.71875 0 29.761719 8.984374 57.457032 24.367187 80.539063-14.796875-8.433594-28.125-17.441407-39.546875-25.960938-27.890625-20.804687-48.957031-41.847656-59.976562-53.652343zm381.539062 53.652343c-11.421875 8.519531-24.75 17.527344-39.546875 25.960938 15.386719-23.082031 24.367187-50.777344 24.367187-80.539063 0-28.554687-8.273437-55.214844-22.535156-77.71875 14.066406 8.175782 26.765625 16.832032 37.714844 24.996094 27.890625 20.804688 48.957031 41.84375 59.976562 53.648438-11.019531 11.808593-32.085937 32.847656-59.976562 53.652343zm0 0"/><path d="m171.984375 145.597656c0 46.328125 37.6875 84.015625 84.015625 84.015625s84.015625-37.6875 84.015625-84.015625c0-8.308594-1.222656-16.539062-3.628906-24.460937-2.160157-7.105469-9.171875-11.566407-16.527344-10.523438-1.234375.175781-2.457031.265625-3.644531.265625-14.054688 0-25.492188-11.4375-25.492188-25.496094 0-1.183593.089844-2.40625.265625-3.640624 1.046875-7.351563-3.421875-14.371094-10.523437-16.527344-7.925782-2.410156-16.160156-3.632813-24.464844-3.632813-46.328125 0-84.015625 37.691407-84.015625 84.015625zm137.695313-4.996094c.152343 1.65625.230468 3.324219.230468 4.996094 0 29.726563-24.183594 53.910156-53.910156 53.910156s-53.910156-24.183593-53.910156-53.910156c0-29.722656 24.183594-53.910156 53.910156-53.910156 1.671875 0 3.339844.078125 4.996094.230469 2.996094 25.445312 23.238281 45.691406 48.683594 48.683593zm0 0"/></svg>